<svg width="613" height="108" viewBox="0 0 613 108" fill="none" xmlns="http://www.w3.org/2000/svg">
<path d="M182.717 13.14H194.552C196.202 13.14 197.762 13.29 199.232 13.59C200.702 13.89 201.977 14.415 203.057 15.165C204.167 15.885 205.037 16.875 205.667 18.135C206.327 19.365 206.657 20.925 206.657 22.815C206.657 24.675 206.357 26.235 205.757 27.495C205.157 28.755 204.332 29.76 203.282 30.51C202.232 31.26 200.987 31.8 199.547 32.13C198.107 32.43 196.547 32.58 194.867 32.58H189.737V45H182.717V13.14ZM189.737 26.64H194.417C195.047 26.64 195.647 26.58 196.217 26.46C196.817 26.34 197.342 26.145 197.792 25.875C198.272 25.575 198.647 25.185 198.917 24.705C199.217 24.195 199.367 23.565 199.367 22.815C199.367 22.005 199.172 21.36 198.782 20.88C198.422 20.37 197.942 19.98 197.342 19.71C196.772 19.44 196.127 19.275 195.407 19.215C194.687 19.125 193.997 19.08 193.337 19.08H189.737V26.64ZM208.407 23.13H215.157V26.64H215.247C215.967 25.29 216.822 24.285 217.812 23.625C218.802 22.935 220.047 22.59 221.547 22.59C221.937 22.59 222.327 22.605 222.717 22.635C223.107 22.665 223.467 22.725 223.797 22.815V28.98C223.317 28.83 222.837 28.725 222.357 28.665C221.907 28.575 221.427 28.53 220.917 28.53C219.627 28.53 218.607 28.71 217.857 29.07C217.107 29.43 216.522 29.94 216.102 30.6C215.712 31.23 215.457 31.995 215.337 32.895C215.217 33.795 215.157 34.785 215.157 35.865V45H208.407V23.13ZM223.331 34.065C223.331 32.325 223.646 30.75 224.276 29.34C224.906 27.93 225.761 26.73 226.841 25.74C227.951 24.72 229.241 23.94 230.711 23.4C232.211 22.86 233.801 22.59 235.481 22.59C237.161 22.59 238.736 22.86 240.206 23.4C241.706 23.94 242.996 24.72 244.076 25.74C245.186 26.73 246.056 27.93 246.686 29.34C247.316 30.75 247.631 32.325 247.631 34.065C247.631 35.805 247.316 37.38 246.686 38.79C246.056 40.2 245.186 41.415 244.076 42.435C242.996 43.425 241.706 44.19 240.206 44.73C238.736 45.27 237.161 45.54 235.481 45.54C233.801 45.54 232.211 45.27 230.711 44.73C229.241 44.19 227.951 43.425 226.841 42.435C225.761 41.415 224.906 40.2 224.276 38.79C223.646 37.38 223.331 35.805 223.331 34.065ZM230.081 34.065C230.081 35.715 230.546 37.05 231.476 38.07C232.436 39.09 233.771 39.6 235.481 39.6C237.191 39.6 238.511 39.09 239.441 38.07C240.401 37.05 240.881 35.715 240.881 34.065C240.881 32.415 240.401 31.08 239.441 30.06C238.511 29.04 237.191 28.53 235.481 28.53C233.771 28.53 232.436 29.04 231.476 30.06C230.546 31.08 230.081 32.415 230.081 34.065ZM272.757 43.155C272.757 47.295 271.707 50.43 269.607 52.56C267.537 54.72 264.372 55.8 260.112 55.8C258.162 55.8 256.242 55.575 254.352 55.125C252.462 54.705 250.722 53.865 249.132 52.605L252.867 47.025C253.917 47.895 255.012 48.585 256.152 49.095C257.322 49.605 258.597 49.86 259.977 49.86C262.047 49.86 263.562 49.35 264.522 48.33C265.512 47.34 266.007 46.065 266.007 44.505V42.39H265.917C265.137 43.44 264.162 44.19 262.992 44.64C261.852 45.06 260.772 45.27 259.752 45.27C258.132 45.27 256.662 45 255.342 44.46C254.022 43.89 252.882 43.11 251.922 42.12C250.992 41.1 250.272 39.9 249.762 38.52C249.252 37.14 248.997 35.625 248.997 33.975C248.997 32.535 249.222 31.125 249.672 29.745C250.152 28.365 250.812 27.15 251.652 26.1C252.522 25.05 253.572 24.21 254.802 23.58C256.032 22.92 257.427 22.59 258.987 22.59C259.947 22.59 260.817 22.695 261.597 22.905C262.407 23.115 263.127 23.385 263.757 23.715C264.387 24.045 264.927 24.42 265.377 24.84C265.827 25.23 266.187 25.62 266.457 26.01H266.547V23.13H272.757V43.155ZM255.747 33.93C255.747 34.65 255.882 35.34 256.152 36C256.422 36.63 256.797 37.2 257.277 37.71C257.787 38.19 258.357 38.58 258.987 38.88C259.647 39.18 260.367 39.33 261.147 39.33C261.897 39.33 262.602 39.18 263.262 38.88C263.922 38.58 264.492 38.19 264.972 37.71C265.482 37.2 265.872 36.63 266.142 36C266.412 35.34 266.547 34.65 266.547 33.93C266.547 33.21 266.412 32.535 266.142 31.905C265.872 31.245 265.482 30.675 264.972 30.195C264.492 29.685 263.922 29.28 263.262 28.98C262.602 28.68 261.897 28.53 261.147 28.53C260.367 28.53 259.647 28.68 258.987 28.98C258.357 29.28 257.787 29.685 257.277 30.195C256.797 30.675 256.422 31.245 256.152 31.905C255.882 32.535 255.747 33.21 255.747 33.93ZM297.052 41.22C295.972 42.6 294.607 43.665 292.957 44.415C291.307 45.165 289.597 45.54 287.827 45.54C286.147 45.54 284.557 45.27 283.057 44.73C281.587 44.19 280.297 43.425 279.187 42.435C278.107 41.415 277.252 40.2 276.622 38.79C275.992 37.38 275.677 35.805 275.677 34.065C275.677 32.325 275.992 30.75 276.622 29.34C277.252 27.93 278.107 26.73 279.187 25.74C280.297 24.72 281.587 23.94 283.057 23.4C284.557 22.86 286.147 22.59 287.827 22.59C289.387 22.59 290.797 22.86 292.057 23.4C293.347 23.94 294.427 24.72 295.297 25.74C296.197 26.73 296.887 27.93 297.367 29.34C297.847 30.75 298.087 32.325 298.087 34.065V36.18H282.427C282.697 37.47 283.282 38.505 284.182 39.285C285.082 40.035 286.192 40.41 287.512 40.41C288.622 40.41 289.552 40.17 290.302 39.69C291.082 39.18 291.757 38.535 292.327 37.755L297.052 41.22ZM291.337 31.59C291.367 30.45 290.992 29.475 290.212 28.665C289.432 27.855 288.427 27.45 287.197 27.45C286.447 27.45 285.787 27.57 285.217 27.81C284.647 28.05 284.152 28.365 283.732 28.755C283.342 29.115 283.027 29.55 282.787 30.06C282.577 30.54 282.457 31.05 282.427 31.59H291.337ZM315.287 28.53H309.347V35.82C309.347 36.42 309.377 36.975 309.437 37.485C309.497 37.965 309.632 38.385 309.842 38.745C310.052 39.105 310.367 39.39 310.787 39.6C311.237 39.78 311.822 39.87 312.542 39.87C312.902 39.87 313.367 39.84 313.937 39.78C314.537 39.69 314.987 39.51 315.287 39.24V44.865C314.537 45.135 313.757 45.315 312.947 45.405C312.137 45.495 311.342 45.54 310.562 45.54C309.422 45.54 308.372 45.42 307.412 45.18C306.452 44.94 305.612 44.565 304.892 44.055C304.172 43.515 303.602 42.825 303.182 41.985C302.792 41.145 302.597 40.125 302.597 38.925V28.53H298.277V23.13H302.597V16.65H309.347V23.13H315.287V28.53ZM331.812 28.53H325.872V35.82C325.872 36.42 325.902 36.975 325.962 37.485C326.022 37.965 326.157 38.385 326.367 38.745C326.577 39.105 326.892 39.39 327.312 39.6C327.762 39.78 328.347 39.87 329.067 39.87C329.427 39.87 329.892 39.84 330.462 39.78C331.062 39.69 331.512 39.51 331.812 39.24V44.865C331.062 45.135 330.282 45.315 329.472 45.405C328.662 45.495 327.867 45.54 327.087 45.54C325.947 45.54 324.897 45.42 323.937 45.18C322.977 44.94 322.137 44.565 321.417 44.055C320.697 43.515 320.127 42.825 319.707 41.985C319.317 41.145 319.122 40.125 319.122 38.925V28.53H314.802V23.13H319.122V16.65H325.872V23.13H331.812V28.53ZM332.632 34.065C332.632 32.325 332.947 30.75 333.577 29.34C334.207 27.93 335.062 26.73 336.142 25.74C337.252 24.72 338.542 23.94 340.012 23.4C341.512 22.86 343.102 22.59 344.782 22.59C346.462 22.59 348.037 22.86 349.507 23.4C351.007 23.94 352.297 24.72 353.377 25.74C354.487 26.73 355.357 27.93 355.987 29.34C356.617 30.75 356.932 32.325 356.932 34.065C356.932 35.805 356.617 37.38 355.987 38.79C355.357 40.2 354.487 41.415 353.377 42.435C352.297 43.425 351.007 44.19 349.507 44.73C348.037 45.27 346.462 45.54 344.782 45.54C343.102 45.54 341.512 45.27 340.012 44.73C338.542 44.19 337.252 43.425 336.142 42.435C335.062 41.415 334.207 40.2 333.577 38.79C332.947 37.38 332.632 35.805 332.632 34.065ZM339.382 34.065C339.382 35.715 339.847 37.05 340.777 38.07C341.737 39.09 343.072 39.6 344.782 39.6C346.492 39.6 347.812 39.09 348.742 38.07C349.702 37.05 350.182 35.715 350.182 34.065C350.182 32.415 349.702 31.08 348.742 30.06C347.812 29.04 346.492 28.53 344.782 28.53C343.072 28.53 341.737 29.04 340.777 30.06C339.847 31.08 339.382 32.415 339.382 34.065Z" fill="#0078BF"/>
<path d="M460.181 20.925C459.611 20.205 458.831 19.68 457.841 19.35C456.881 18.99 455.966 18.81 455.096 18.81C454.586 18.81 454.061 18.87 453.521 18.99C452.981 19.11 452.471 19.305 451.991 19.575C451.511 19.815 451.121 20.145 450.821 20.565C450.521 20.985 450.371 21.495 450.371 22.095C450.371 23.055 450.731 23.79 451.451 24.3C452.171 24.81 453.071 25.245 454.151 25.605C455.261 25.965 456.446 26.325 457.706 26.685C458.966 27.045 460.136 27.555 461.216 28.215C462.326 28.875 463.241 29.76 463.961 30.87C464.681 31.98 465.041 33.465 465.041 35.325C465.041 37.095 464.711 38.64 464.051 39.96C463.391 41.28 462.491 42.375 461.351 43.245C460.241 44.115 458.936 44.76 457.436 45.18C455.966 45.6 454.406 45.81 452.756 45.81C450.686 45.81 448.766 45.495 446.996 44.865C445.226 44.235 443.576 43.215 442.046 41.805L447.041 36.315C447.761 37.275 448.661 38.025 449.741 38.565C450.851 39.075 451.991 39.33 453.161 39.33C453.731 39.33 454.301 39.27 454.871 39.15C455.471 39 455.996 38.79 456.446 38.52C456.926 38.25 457.301 37.905 457.571 37.485C457.871 37.065 458.021 36.57 458.021 36C458.021 35.04 457.646 34.29 456.896 33.75C456.176 33.18 455.261 32.7 454.151 32.31C453.041 31.92 451.841 31.53 450.551 31.14C449.261 30.75 448.061 30.225 446.951 29.565C445.841 28.905 444.911 28.035 444.161 26.955C443.441 25.875 443.081 24.45 443.081 22.68C443.081 20.97 443.411 19.47 444.071 18.18C444.761 16.89 445.661 15.81 446.771 14.94C447.911 14.07 449.216 13.425 450.686 13.005C452.156 12.555 453.671 12.33 455.231 12.33C457.031 12.33 458.771 12.585 460.451 13.095C462.131 13.605 463.646 14.46 464.996 15.66L460.181 20.925ZM465.32 23.13H472.61L478.145 37.98H478.235L483.365 23.13H490.16L481.52 45H474.365L465.32 23.13ZM490.91 23.13H497.66V45H490.91V23.13ZM490.37 16.245C490.37 15.165 490.745 14.25 491.495 13.5C492.275 12.72 493.205 12.33 494.285 12.33C495.365 12.33 496.28 12.72 497.03 13.5C497.81 14.25 498.2 15.165 498.2 16.245C498.2 17.325 497.81 18.255 497.03 19.035C496.28 19.785 495.365 20.16 494.285 20.16C493.205 20.16 492.275 19.785 491.495 19.035C490.745 18.255 490.37 17.325 490.37 16.245ZM500.8 10.98H507.55V45H500.8V10.98ZM531.659 45H525.179V42.03H525.089C524.849 42.45 524.534 42.87 524.144 43.29C523.784 43.71 523.334 44.085 522.794 44.415C522.254 44.745 521.639 45.015 520.949 45.225C520.259 45.435 519.509 45.54 518.699 45.54C516.989 45.54 515.594 45.285 514.514 44.775C513.464 44.235 512.639 43.5 512.039 42.57C511.469 41.64 511.079 40.545 510.869 39.285C510.689 38.025 510.599 36.66 510.599 35.19V23.13H517.349V33.84C517.349 34.47 517.364 35.13 517.394 35.82C517.454 36.48 517.589 37.095 517.799 37.665C518.039 38.235 518.384 38.7 518.834 39.06C519.314 39.42 519.989 39.6 520.859 39.6C521.729 39.6 522.434 39.45 522.974 39.15C523.514 38.82 523.919 38.4 524.189 37.89C524.489 37.35 524.684 36.75 524.774 36.09C524.864 35.43 524.909 34.74 524.909 34.02V23.13H531.659V45ZM535.269 23.13H541.479V26.01H541.569C541.839 25.62 542.184 25.23 542.604 24.84C543.054 24.42 543.564 24.045 544.134 23.715C544.734 23.385 545.379 23.115 546.069 22.905C546.759 22.695 547.494 22.59 548.274 22.59C549.894 22.59 551.364 22.875 552.684 23.445C554.004 23.985 555.129 24.765 556.059 25.785C557.019 26.775 557.754 27.96 558.264 29.34C558.774 30.72 559.029 32.235 559.029 33.885C559.029 35.415 558.789 36.885 558.309 38.295C557.859 39.675 557.199 40.905 556.329 41.985C555.489 43.065 554.454 43.935 553.224 44.595C551.994 45.225 550.599 45.54 549.039 45.54C547.629 45.54 546.309 45.33 545.079 44.91C543.879 44.46 542.889 43.71 542.109 42.66H542.019V55.26H535.269V23.13ZM541.479 34.065C541.479 35.715 541.944 37.05 542.874 38.07C543.834 39.09 545.169 39.6 546.879 39.6C548.589 39.6 549.909 39.09 550.839 38.07C551.799 37.05 552.279 35.715 552.279 34.065C552.279 32.415 551.799 31.08 550.839 30.06C549.909 29.04 548.589 28.53 546.879 28.53C545.169 28.53 543.834 29.04 542.874 30.06C541.944 31.08 541.479 32.415 541.479 34.065ZM561.814 23.13H568.024V26.01H568.114C568.384 25.62 568.729 25.23 569.149 24.84C569.599 24.42 570.109 24.045 570.679 23.715C571.279 23.385 571.924 23.115 572.614 22.905C573.304 22.695 574.039 22.59 574.819 22.59C576.439 22.59 577.909 22.875 579.229 23.445C580.549 23.985 581.674 24.765 582.604 25.785C583.564 26.775 584.299 27.96 584.809 29.34C585.319 30.72 585.574 32.235 585.574 33.885C585.574 35.415 585.334 36.885 584.854 38.295C584.404 39.675 583.744 40.905 582.874 41.985C582.034 43.065 580.999 43.935 579.769 44.595C578.539 45.225 577.144 45.54 575.584 45.54C574.174 45.54 572.854 45.33 571.624 44.91C570.424 44.46 569.434 43.71 568.654 42.66H568.564V55.26H561.814V23.13ZM568.024 34.065C568.024 35.715 568.489 37.05 569.419 38.07C570.379 39.09 571.714 39.6 573.424 39.6C575.134 39.6 576.454 39.09 577.384 38.07C578.344 37.05 578.824 35.715 578.824 34.065C578.824 32.415 578.344 31.08 577.384 30.06C576.454 29.04 575.134 28.53 573.424 28.53C571.714 28.53 570.379 29.04 569.419 30.06C568.489 31.08 568.024 32.415 568.024 34.065ZM586.919 34.065C586.919 32.325 587.234 30.75 587.864 29.34C588.494 27.93 589.349 26.73 590.429 25.74C591.539 24.72 592.829 23.94 594.299 23.4C595.799 22.86 597.389 22.59 599.069 22.59C600.749 22.59 602.324 22.86 603.794 23.4C605.294 23.94 606.584 24.72 607.664 25.74C608.774 26.73 609.644 27.93 610.274 29.34C610.904 30.75 611.219 32.325 611.219 34.065C611.219 35.805 610.904 37.38 610.274 38.79C609.644 40.2 608.774 41.415 607.664 42.435C606.584 43.425 605.294 44.19 603.794 44.73C602.324 45.27 600.749 45.54 599.069 45.54C597.389 45.54 595.799 45.27 594.299 44.73C592.829 44.19 591.539 43.425 590.429 42.435C589.349 41.415 588.494 40.2 587.864 38.79C587.234 37.38 586.919 35.805 586.919 34.065ZM593.669 34.065C593.669 35.715 594.134 37.05 595.064 38.07C596.024 39.09 597.359 39.6 599.069 39.6C600.779 39.6 602.099 39.09 603.029 38.07C603.989 37.05 604.469 35.715 604.469 34.065C604.469 32.415 603.989 31.08 603.029 30.06C602.099 29.04 600.779 28.53 599.069 28.53C597.359 28.53 596.024 29.04 595.064 30.06C594.134 31.08 593.669 32.415 593.669 34.065Z" fill="#0078BF"/>
<path d="M108 32C107.448 32 107 32.4477 107 33C107 33.5523 107.448 34 108 34V32ZM161.207 33.7071C161.598 33.3166 161.598 32.6834 161.207 32.2929L154.843 25.9289C154.453 25.5384 153.819 25.5384 153.429 25.9289C153.038 26.3195 153.038 26.9526 153.429 27.3431L159.086 33L153.429 38.6569C153.038 39.0474 153.038 39.6805 153.429 40.0711C153.819 40.4616 154.453 40.4616 154.843 40.0711L161.207 33.7071ZM108 34H160.5V32H108V34Z" fill="#0078BF"/>
<path d="M374 31.5C373.448 31.5 373 31.9477 373 32.5C373 33.0523 373.448 33.5 374 33.5V31.5ZM427.207 33.2071C427.598 32.8166 427.598 32.1834 427.207 31.7929L420.843 25.4289C420.453 25.0384 419.819 25.0384 419.429 25.4289C419.038 25.8195 419.038 26.4526 419.429 26.8431L425.086 32.5L419.429 38.1569C419.038 38.5474 419.038 39.1805 419.429 39.5711C419.819 39.9616 420.453 39.9616 420.843 39.5711L427.207 33.2071ZM374 33.5H426.5V31.5H374V33.5Z" fill="#0078BF"/>
<path d="M57 85L56.0116 84.848L56 84.9235L56 85L57 85ZM56.2929 107.707C56.6834 108.098 57.3166 108.098 57.7071 107.707L64.071 101.343C64.4615 100.953 64.4615 100.319 64.071 99.929C63.6805 99.5384 63.0474 99.5384 62.6568 99.929L57 105.586L51.3431 99.929C50.9526 99.5384 50.3194 99.5384 49.9289 99.929C49.5384 100.319 49.5384 100.953 49.9289 101.343L56.2929 107.707ZM530.5 78.5L530.5 79.5L530.5 79.5L530.5 78.5ZM537 61C537 60.4477 536.552 60 536 60C535.448 60 535 60.4477 535 61L537 61ZM56 85L56 107L58 107L58 85L56 85ZM57.9883 85.1521C58.255 83.4187 60.2467 79.5 66.5 79.5L66.5 77.5C59.1532 77.5 56.4116 82.248 56.0116 84.848L57.9883 85.1521ZM66.5 79.5C73.2786 79.5 378.688 79.5 530.5 79.5L530.5 77.5C378.645 77.5 73.3213 77.5 66.5 77.5L66.5 79.5ZM530.5 79.5C531.577 79.5 533.169 79.1852 534.522 78.2115C535.925 77.2011 537 75.5259 537 73L535 73C535 74.8741 534.242 75.9489 533.353 76.5885C532.414 77.2648 531.257 77.5 530.5 77.5L530.5 79.5ZM537 73C537 68.5933 537 63.1734 537 61L535 61C535 63.1667 535 68.6 535 73L537 73Z" fill="#0078BF"/>
<path d="M3.51504 13.14H10.535V45H3.51504V13.14ZM37.2155 45H31.0055V42.12H30.9155C30.6455 42.51 30.2855 42.915 29.8355 43.335C29.4155 43.725 28.9055 44.085 28.3055 44.415C27.7355 44.745 27.0905 45.015 26.3705 45.225C25.6805 45.435 24.9605 45.54 24.2105 45.54C22.5905 45.54 21.1205 45.27 19.8005 44.73C18.4805 44.16 17.3405 43.38 16.3805 42.39C15.4505 41.37 14.7305 40.17 14.2205 38.79C13.7105 37.41 13.4555 35.895 13.4555 34.245C13.4555 32.715 13.6805 31.26 14.1305 29.88C14.6105 28.47 15.2705 27.225 16.1105 26.145C16.9805 25.065 18.0305 24.21 19.2605 23.58C20.4905 22.92 21.8855 22.59 23.4455 22.59C24.8555 22.59 26.1605 22.815 27.3605 23.265C28.5905 23.685 29.5955 24.42 30.3755 25.47H30.4655V10.98H37.2155V45ZM31.0055 34.065C31.0055 32.415 30.5255 31.08 29.5655 30.06C28.6355 29.04 27.3155 28.53 25.6055 28.53C23.8955 28.53 22.5605 29.04 21.6005 30.06C20.6705 31.08 20.2055 32.415 20.2055 34.065C20.2055 35.715 20.6705 37.05 21.6005 38.07C22.5605 39.09 23.8955 39.6 25.6055 39.6C27.3155 39.6 28.6355 39.09 29.5655 38.07C30.5255 37.05 31.0055 35.715 31.0055 34.065ZM61.5102 41.22C60.4302 42.6 59.0652 43.665 57.4152 44.415C55.7652 45.165 54.0552 45.54 52.2852 45.54C50.6052 45.54 49.0152 45.27 47.5152 44.73C46.0452 44.19 44.7552 43.425 43.6452 42.435C42.5652 41.415 41.7102 40.2 41.0802 38.79C40.4502 37.38 40.1352 35.805 40.1352 34.065C40.1352 32.325 40.4502 30.75 41.0802 29.34C41.7102 27.93 42.5652 26.73 43.6452 25.74C44.7552 24.72 46.0452 23.94 47.5152 23.4C49.0152 22.86 50.6052 22.59 52.2852 22.59C53.8452 22.59 55.2552 22.86 56.5152 23.4C57.8052 23.94 58.8852 24.72 59.7552 25.74C60.6552 26.73 61.3452 27.93 61.8252 29.34C62.3052 30.75 62.5452 32.325 62.5452 34.065V36.18H46.8852C47.1552 37.47 47.7402 38.505 48.6402 39.285C49.5402 40.035 50.6502 40.41 51.9702 40.41C53.0802 40.41 54.0102 40.17 54.7602 39.69C55.5402 39.18 56.2152 38.535 56.7852 37.755L61.5102 41.22ZM55.7952 31.59C55.8252 30.45 55.4502 29.475 54.6702 28.665C53.8902 27.855 52.8852 27.45 51.6552 27.45C50.9052 27.45 50.2452 27.57 49.6752 27.81C49.1052 28.05 48.6102 28.365 48.1902 28.755C47.8002 29.115 47.4852 29.55 47.2452 30.06C47.0352 30.54 46.9152 31.05 46.8852 31.59H55.7952ZM78.575 42.255H78.485C77.735 43.425 76.73 44.265 75.47 44.775C74.24 45.285 72.935 45.54 71.555 45.54C70.535 45.54 69.545 45.39 68.585 45.09C67.655 44.82 66.83 44.4 66.11 43.83C65.39 43.26 64.82 42.555 64.4 41.715C63.98 40.875 63.77 39.9 63.77 38.79C63.77 37.53 63.995 36.465 64.445 35.595C64.925 34.725 65.555 34.005 66.335 33.435C67.145 32.865 68.06 32.43 69.08 32.13C70.1 31.8 71.15 31.56 72.23 31.41C73.34 31.26 74.435 31.17 75.515 31.14C76.625 31.11 77.645 31.095 78.575 31.095C78.575 29.895 78.14 28.95 77.27 28.26C76.43 27.54 75.425 27.18 74.255 27.18C73.145 27.18 72.125 27.42 71.195 27.9C70.295 28.35 69.485 28.98 68.765 29.79L65.165 26.1C66.425 24.93 67.895 24.06 69.575 23.49C71.255 22.89 72.995 22.59 74.795 22.59C76.775 22.59 78.395 22.845 79.655 23.355C80.945 23.835 81.965 24.555 82.715 25.515C83.495 26.475 84.035 27.66 84.335 29.07C84.635 30.45 84.785 32.055 84.785 33.885V45H78.575V42.255ZM76.91 35.415C76.4 35.415 75.755 35.445 74.975 35.505C74.225 35.535 73.49 35.655 72.77 35.865C72.08 36.075 71.48 36.39 70.97 36.81C70.49 37.23 70.25 37.815 70.25 38.565C70.25 39.375 70.595 39.975 71.285 40.365C71.975 40.755 72.695 40.95 73.445 40.95C74.105 40.95 74.735 40.86 75.335 40.68C75.965 40.5 76.52 40.245 77 39.915C77.48 39.585 77.855 39.165 78.125 38.655C78.425 38.145 78.575 37.545 78.575 36.855V35.415H76.91Z" fill="#0078BF"/>
</svg>
