<svg width="551" height="551" viewBox="0 0 551 551" fill="none" xmlns="http://www.w3.org/2000/svg">
<path d="M525.254 419.221L130.637 524.958L25.0044 130.732L419.622 24.9946L525.254 419.221ZM434.064 8.42163e-05L0 116.307L116.307 550.371L550.371 434.064L434.064 8.42163e-05Z" fill="white"/>
<path d="M310.312 243.562L304.856 223.2L208.901 248.911L243.857 379.368L339.812 353.657L334.261 332.941L258.862 353.144L249.863 319.562L304.814 304.838L299.229 283.995L244.278 298.719L234.913 263.765L310.312 243.562Z" fill="white"/>
<path d="M300.275 202.287C273.947 209.341 246.792 193.676 239.741 167.361L261.776 161.457C265.572 175.626 280.194 184.061 294.373 180.262C308.552 176.463 316.998 161.846 313.201 147.677L335.241 141.772C342.292 168.087 326.602 195.232 300.275 202.287Z" fill="white"/>
</svg>
