<svg width="699" height="165" viewBox="0 0 699 165" fill="none" xmlns="http://www.w3.org/2000/svg">
<path d="M366.397 127.2H358.317V121.68H380.717V127.2H372.637V150H366.397V127.2ZM395.472 146.64C394.512 147.867 393.299 148.813 391.832 149.48C390.366 150.147 388.846 150.48 387.272 150.48C385.779 150.48 384.366 150.24 383.032 149.76C381.726 149.28 380.579 148.6 379.592 147.72C378.632 146.813 377.872 145.733 377.312 144.48C376.752 143.227 376.472 141.827 376.472 140.28C376.472 138.733 376.752 137.333 377.312 136.08C377.872 134.827 378.632 133.76 379.592 132.88C380.579 131.973 381.726 131.28 383.032 130.8C384.366 130.32 385.779 130.08 387.272 130.08C388.659 130.08 389.912 130.32 391.032 130.8C392.179 131.28 393.139 131.973 393.912 132.88C394.712 133.76 395.326 134.827 395.752 136.08C396.179 137.333 396.392 138.733 396.392 140.28V142.16H382.472C382.712 143.307 383.232 144.227 384.032 144.92C384.832 145.587 385.819 145.92 386.992 145.92C387.979 145.92 388.806 145.707 389.472 145.28C390.166 144.827 390.766 144.253 391.272 143.56L395.472 146.64ZM390.392 138.08C390.419 137.067 390.086 136.2 389.392 135.48C388.699 134.76 387.806 134.4 386.712 134.4C386.046 134.4 385.459 134.507 384.952 134.72C384.446 134.933 384.006 135.213 383.632 135.56C383.286 135.88 383.006 136.267 382.792 136.72C382.606 137.147 382.499 137.6 382.472 138.08H390.392ZM411.601 136.84C411.308 136.413 410.894 136.067 410.361 135.8C409.828 135.507 409.254 135.36 408.641 135.36C407.121 135.36 405.934 135.813 405.081 136.72C404.254 137.627 403.841 138.813 403.841 140.28C403.841 141.747 404.254 142.933 405.081 143.84C405.934 144.747 407.121 145.2 408.641 145.2C409.308 145.2 409.881 145.053 410.361 144.76C410.841 144.467 411.254 144.12 411.601 143.72L415.561 147.88C414.628 148.84 413.521 149.52 412.241 149.92C410.988 150.293 409.788 150.48 408.641 150.48C407.148 150.48 405.734 150.24 404.401 149.76C403.094 149.28 401.948 148.6 400.961 147.72C400.001 146.813 399.241 145.733 398.681 144.48C398.121 143.227 397.841 141.827 397.841 140.28C397.841 138.733 398.121 137.333 398.681 136.08C399.241 134.827 400.001 133.76 400.961 132.88C401.948 131.973 403.094 131.28 404.401 130.8C405.734 130.32 407.148 130.08 408.641 130.08C409.788 130.08 410.988 130.28 412.241 130.68C413.521 131.053 414.628 131.72 415.561 132.68L411.601 136.84ZM416.138 130.56H421.898V133.2H421.978C422.165 132.827 422.431 132.453 422.778 132.08C423.125 131.707 423.538 131.373 424.018 131.08C424.498 130.787 425.045 130.547 425.658 130.36C426.271 130.173 426.938 130.08 427.658 130.08C429.178 130.08 430.405 130.32 431.338 130.8C432.271 131.253 432.991 131.893 433.498 132.72C434.031 133.547 434.391 134.52 434.578 135.64C434.765 136.76 434.858 137.973 434.858 139.28V150H428.858V140.48C428.858 139.92 428.831 139.347 428.778 138.76C428.751 138.147 428.631 137.587 428.418 137.08C428.231 136.573 427.925 136.16 427.498 135.84C427.098 135.52 426.511 135.36 425.738 135.36C424.965 135.36 424.338 135.507 423.858 135.8C423.378 136.067 423.005 136.44 422.738 136.92C422.498 137.373 422.338 137.893 422.258 138.48C422.178 139.067 422.138 139.68 422.138 140.32V150H416.138V130.56ZM437.587 130.56H443.587V150H437.587V130.56ZM437.107 124.44C437.107 123.48 437.44 122.667 438.107 122C438.8 121.307 439.627 120.96 440.587 120.96C441.547 120.96 442.36 121.307 443.027 122C443.72 122.667 444.067 123.48 444.067 124.44C444.067 125.4 443.72 126.227 443.027 126.92C442.36 127.587 441.547 127.92 440.587 127.92C439.627 127.92 438.8 127.587 438.107 126.92C437.44 126.227 437.107 125.4 437.107 124.44ZM459.457 136.84C459.164 136.413 458.751 136.067 458.217 135.8C457.684 135.507 457.111 135.36 456.497 135.36C454.977 135.36 453.791 135.813 452.937 136.72C452.111 137.627 451.697 138.813 451.697 140.28C451.697 141.747 452.111 142.933 452.937 143.84C453.791 144.747 454.977 145.2 456.497 145.2C457.164 145.2 457.737 145.053 458.217 144.76C458.697 144.467 459.111 144.12 459.457 143.72L463.417 147.88C462.484 148.84 461.377 149.52 460.097 149.92C458.844 150.293 457.644 150.48 456.497 150.48C455.004 150.48 453.591 150.24 452.257 149.76C450.951 149.28 449.804 148.6 448.817 147.72C447.857 146.813 447.097 145.733 446.537 144.48C445.977 143.227 445.697 141.827 445.697 140.28C445.697 138.733 445.977 137.333 446.537 136.08C447.097 134.827 447.857 133.76 448.817 132.88C449.804 131.973 450.951 131.28 452.257 130.8C453.591 130.32 455.004 130.08 456.497 130.08C457.644 130.08 458.844 130.28 460.097 130.68C461.377 131.053 462.484 131.72 463.417 132.68L459.457 136.84ZM469.994 119.76V133.2H470.074C470.208 132.827 470.434 132.453 470.754 132.08C471.074 131.707 471.461 131.373 471.914 131.08C472.368 130.787 472.901 130.547 473.514 130.36C474.128 130.173 474.794 130.08 475.514 130.08C477.034 130.08 478.261 130.32 479.194 130.8C480.128 131.253 480.848 131.893 481.354 132.72C481.888 133.547 482.248 134.52 482.434 135.64C482.621 136.76 482.714 137.973 482.714 139.28V150H476.714V140.48C476.714 139.92 476.688 139.347 476.634 138.76C476.608 138.147 476.488 137.587 476.274 137.08C476.088 136.573 475.781 136.16 475.354 135.84C474.954 135.52 474.368 135.36 473.594 135.36C472.821 135.36 472.194 135.507 471.714 135.8C471.234 136.067 470.861 136.44 470.594 136.92C470.354 137.373 470.194 137.893 470.114 138.48C470.034 139.067 469.994 139.68 469.994 140.32V150H463.994V119.76H469.994ZM503.763 146.64C502.803 147.867 501.59 148.813 500.123 149.48C498.656 150.147 497.136 150.48 495.563 150.48C494.07 150.48 492.656 150.24 491.323 149.76C490.016 149.28 488.87 148.6 487.883 147.72C486.923 146.813 486.163 145.733 485.603 144.48C485.043 143.227 484.763 141.827 484.763 140.28C484.763 138.733 485.043 137.333 485.603 136.08C486.163 134.827 486.923 133.76 487.883 132.88C488.87 131.973 490.016 131.28 491.323 130.8C492.656 130.32 494.07 130.08 495.563 130.08C496.95 130.08 498.203 130.32 499.323 130.8C500.47 131.28 501.43 131.973 502.203 132.88C503.003 133.76 503.616 134.827 504.043 136.08C504.47 137.333 504.683 138.733 504.683 140.28V142.16H490.763C491.003 143.307 491.523 144.227 492.323 144.92C493.123 145.587 494.11 145.92 495.283 145.92C496.27 145.92 497.096 145.707 497.763 145.28C498.456 144.827 499.056 144.253 499.563 143.56L503.763 146.64ZM498.683 138.08C498.71 137.067 498.376 136.2 497.683 135.48C496.99 134.76 496.096 134.4 495.003 134.4C494.336 134.4 493.75 134.507 493.243 134.72C492.736 134.933 492.296 135.213 491.923 135.56C491.576 135.88 491.296 136.267 491.083 136.72C490.896 137.147 490.79 137.6 490.763 138.08H498.683ZM535.368 146.64C534.408 147.867 533.194 148.813 531.728 149.48C530.261 150.147 528.741 150.48 527.168 150.48C525.674 150.48 524.261 150.24 522.928 149.76C521.621 149.28 520.474 148.6 519.488 147.72C518.528 146.813 517.768 145.733 517.208 144.48C516.648 143.227 516.368 141.827 516.368 140.28C516.368 138.733 516.648 137.333 517.208 136.08C517.768 134.827 518.528 133.76 519.488 132.88C520.474 131.973 521.621 131.28 522.928 130.8C524.261 130.32 525.674 130.08 527.168 130.08C528.554 130.08 529.808 130.32 530.928 130.8C532.074 131.28 533.034 131.973 533.808 132.88C534.608 133.76 535.221 134.827 535.648 136.08C536.074 137.333 536.288 138.733 536.288 140.28V142.16H522.368C522.608 143.307 523.128 144.227 523.928 144.92C524.728 145.587 525.714 145.92 526.888 145.92C527.874 145.92 528.701 145.707 529.368 145.28C530.061 144.827 530.661 144.253 531.168 143.56L535.368 146.64ZM530.288 138.08C530.314 137.067 529.981 136.2 529.288 135.48C528.594 134.76 527.701 134.4 526.608 134.4C525.941 134.4 525.354 134.507 524.848 134.72C524.341 134.933 523.901 135.213 523.528 135.56C523.181 135.88 522.901 136.267 522.688 136.72C522.501 137.147 522.394 137.6 522.368 138.08H530.288ZM563.332 128.6C562.826 127.96 562.132 127.493 561.252 127.2C560.399 126.88 559.586 126.72 558.812 126.72C558.359 126.72 557.892 126.773 557.412 126.88C556.932 126.987 556.479 127.16 556.052 127.4C555.626 127.613 555.279 127.907 555.012 128.28C554.746 128.653 554.612 129.107 554.612 129.64C554.612 130.493 554.932 131.147 555.572 131.6C556.212 132.053 557.012 132.44 557.972 132.76C558.959 133.08 560.012 133.4 561.132 133.72C562.252 134.04 563.292 134.493 564.252 135.08C565.239 135.667 566.052 136.453 566.692 137.44C567.332 138.427 567.652 139.747 567.652 141.4C567.652 142.973 567.359 144.347 566.772 145.52C566.186 146.693 565.386 147.667 564.372 148.44C563.386 149.213 562.226 149.787 560.892 150.16C559.586 150.533 558.199 150.72 556.732 150.72C554.892 150.72 553.186 150.44 551.612 149.88C550.039 149.32 548.572 148.413 547.212 147.16L551.652 142.28C552.292 143.133 553.092 143.8 554.052 144.28C555.039 144.733 556.052 144.96 557.092 144.96C557.599 144.96 558.106 144.907 558.612 144.8C559.146 144.667 559.612 144.48 560.012 144.24C560.439 144 560.772 143.693 561.012 143.32C561.279 142.947 561.412 142.507 561.412 142C561.412 141.147 561.079 140.48 560.412 140C559.772 139.493 558.959 139.067 557.972 138.72C556.986 138.373 555.919 138.027 554.772 137.68C553.626 137.333 552.559 136.867 551.572 136.28C550.586 135.693 549.759 134.92 549.092 133.96C548.452 133 548.132 131.733 548.132 130.16C548.132 128.64 548.426 127.307 549.012 126.16C549.626 125.013 550.426 124.053 551.412 123.28C552.426 122.507 553.586 121.933 554.892 121.56C556.199 121.16 557.546 120.96 558.932 120.96C560.532 120.96 562.079 121.187 563.572 121.64C565.066 122.093 566.412 122.853 567.612 123.92L563.332 128.6ZM588.661 150H582.901V147.36H582.821C582.608 147.733 582.328 148.107 581.981 148.48C581.661 148.853 581.261 149.187 580.781 149.48C580.301 149.773 579.754 150.013 579.141 150.2C578.528 150.387 577.861 150.48 577.141 150.48C575.621 150.48 574.381 150.253 573.421 149.8C572.488 149.32 571.754 148.667 571.221 147.84C570.714 147.013 570.368 146.04 570.181 144.92C570.021 143.8 569.941 142.587 569.941 141.28V130.56H575.941V140.08C575.941 140.64 575.954 141.227 575.981 141.84C576.034 142.427 576.154 142.973 576.341 143.48C576.554 143.987 576.861 144.4 577.261 144.72C577.688 145.04 578.288 145.2 579.061 145.2C579.834 145.2 580.461 145.067 580.941 144.8C581.421 144.507 581.781 144.133 582.021 143.68C582.288 143.2 582.461 142.667 582.541 142.08C582.621 141.493 582.661 140.88 582.661 140.24V130.56H588.661V150ZM591.87 130.56H597.39V133.12H597.47C597.71 132.773 598.017 132.427 598.39 132.08C598.79 131.707 599.243 131.373 599.75 131.08C600.283 130.787 600.857 130.547 601.47 130.36C602.083 130.173 602.737 130.08 603.43 130.08C604.87 130.08 606.177 130.333 607.35 130.84C608.523 131.32 609.523 132.013 610.35 132.92C611.203 133.8 611.857 134.853 612.31 136.08C612.763 137.307 612.99 138.653 612.99 140.12C612.99 141.48 612.777 142.787 612.35 144.04C611.95 145.267 611.363 146.36 610.59 147.32C609.843 148.28 608.923 149.053 607.83 149.64C606.737 150.2 605.497 150.48 604.11 150.48C602.857 150.48 601.683 150.293 600.59 149.92C599.523 149.52 598.643 148.853 597.95 147.92H597.87V159.12H591.87V130.56ZM597.39 140.28C597.39 141.747 597.803 142.933 598.63 143.84C599.483 144.747 600.67 145.2 602.19 145.2C603.71 145.2 604.883 144.747 605.71 143.84C606.563 142.933 606.99 141.747 606.99 140.28C606.99 138.813 606.563 137.627 605.71 136.72C604.883 135.813 603.71 135.36 602.19 135.36C600.67 135.36 599.483 135.813 598.63 136.72C597.803 137.627 597.39 138.813 597.39 140.28ZM615.465 130.56H620.985V133.12H621.065C621.305 132.773 621.612 132.427 621.985 132.08C622.385 131.707 622.838 131.373 623.345 131.08C623.878 130.787 624.452 130.547 625.065 130.36C625.678 130.173 626.332 130.08 627.025 130.08C628.465 130.08 629.772 130.333 630.945 130.84C632.118 131.32 633.118 132.013 633.945 132.92C634.798 133.8 635.452 134.853 635.905 136.08C636.358 137.307 636.585 138.653 636.585 140.12C636.585 141.48 636.372 142.787 635.945 144.04C635.545 145.267 634.958 146.36 634.185 147.32C633.438 148.28 632.518 149.053 631.425 149.64C630.332 150.2 629.092 150.48 627.705 150.48C626.452 150.48 625.278 150.293 624.185 149.92C623.118 149.52 622.238 148.853 621.545 147.92H621.465V159.12H615.465V130.56ZM620.985 140.28C620.985 141.747 621.398 142.933 622.225 143.84C623.078 144.747 624.265 145.2 625.785 145.2C627.305 145.2 628.478 144.747 629.305 143.84C630.158 142.933 630.585 141.747 630.585 140.28C630.585 138.813 630.158 137.627 629.305 136.72C628.478 135.813 627.305 135.36 625.785 135.36C624.265 135.36 623.078 135.813 622.225 136.72C621.398 137.627 620.985 138.813 620.985 140.28ZM637.78 140.28C637.78 138.733 638.06 137.333 638.62 136.08C639.18 134.827 639.94 133.76 640.9 132.88C641.887 131.973 643.034 131.28 644.34 130.8C645.674 130.32 647.087 130.08 648.58 130.08C650.074 130.08 651.474 130.32 652.78 130.8C654.114 131.28 655.26 131.973 656.22 132.88C657.207 133.76 657.98 134.827 658.54 136.08C659.1 137.333 659.38 138.733 659.38 140.28C659.38 141.827 659.1 143.227 658.54 144.48C657.98 145.733 657.207 146.813 656.22 147.72C655.26 148.6 654.114 149.28 652.78 149.76C651.474 150.24 650.074 150.48 648.58 150.48C647.087 150.48 645.674 150.24 644.34 149.76C643.034 149.28 641.887 148.6 640.9 147.72C639.94 146.813 639.18 145.733 638.62 144.48C638.06 143.227 637.78 141.827 637.78 140.28ZM643.78 140.28C643.78 141.747 644.194 142.933 645.02 143.84C645.874 144.747 647.06 145.2 648.58 145.2C650.1 145.2 651.274 144.747 652.1 143.84C652.954 142.933 653.38 141.747 653.38 140.28C653.38 138.813 652.954 137.627 652.1 136.72C651.274 135.813 650.1 135.36 648.58 135.36C647.06 135.36 645.874 135.813 645.02 136.72C644.194 137.627 643.78 138.813 643.78 140.28ZM661.315 130.56H667.315V133.68H667.395C668.035 132.48 668.795 131.587 669.675 131C670.555 130.387 671.661 130.08 672.995 130.08C673.341 130.08 673.688 130.093 674.035 130.12C674.381 130.147 674.701 130.2 674.995 130.28V135.76C674.568 135.627 674.141 135.533 673.715 135.48C673.315 135.4 672.888 135.36 672.435 135.36C671.288 135.36 670.381 135.52 669.715 135.84C669.048 136.16 668.528 136.613 668.155 137.2C667.808 137.76 667.581 138.44 667.475 139.24C667.368 140.04 667.315 140.92 667.315 141.88V150H661.315V130.56ZM689.244 135.36H683.964V141.84C683.964 142.373 683.99 142.867 684.044 143.32C684.097 143.747 684.217 144.12 684.404 144.44C684.59 144.76 684.87 145.013 685.244 145.2C685.644 145.36 686.164 145.44 686.804 145.44C687.124 145.44 687.537 145.413 688.044 145.36C688.577 145.28 688.977 145.12 689.244 144.88V149.88C688.577 150.12 687.884 150.28 687.164 150.36C686.444 150.44 685.737 150.48 685.044 150.48C684.03 150.48 683.097 150.373 682.244 150.16C681.39 149.947 680.644 149.613 680.004 149.16C679.364 148.68 678.857 148.067 678.484 147.32C678.137 146.573 677.964 145.667 677.964 144.6V135.36H674.124V130.56H677.964V124.8H683.964V130.56H689.244V135.36ZM690.773 130.56H696.773V150H690.773V130.56ZM690.293 124.44C690.293 123.48 690.626 122.667 691.293 122C691.986 121.307 692.813 120.96 693.773 120.96C694.733 120.96 695.546 121.307 696.213 122C696.906 122.667 697.253 123.48 697.253 124.44C697.253 125.4 696.906 126.227 696.213 126.92C695.546 127.587 694.733 127.92 693.773 127.92C692.813 127.92 691.986 127.587 691.293 126.92C690.626 126.227 690.293 125.4 690.293 124.44Z" fill="black"/>
<path d="M6.80608 1.32774H26.3686C29.0959 1.32774 31.6745 1.57362 34.1043 2.06537C36.5341 2.55712 38.6416 3.41769 40.4268 4.64708C42.2615 5.82729 43.6996 7.45008 44.7409 9.51546C45.8319 11.5316 46.3773 14.0888 46.3773 17.1868C46.3773 20.2357 45.8815 22.7928 44.8897 24.8582C43.8979 26.9236 42.5343 28.571 40.7987 29.8003C39.0631 31.0297 37.0052 31.9149 34.625 32.4558C32.2447 32.9476 29.6662 33.1934 26.8892 33.1934H18.4097V53.5521H6.80608V1.32774ZM18.4097 23.4567H26.1454C27.1868 23.4567 28.1785 23.3584 29.1207 23.1616C30.1125 22.9649 30.9802 22.6453 31.7241 22.2027C32.5175 21.711 33.1373 21.0717 33.5836 20.2849C34.0795 19.4489 34.3274 18.4162 34.3274 17.1868C34.3274 15.8591 34.0051 14.8018 33.3605 14.015C32.7654 13.179 31.972 12.5397 30.9802 12.0972C30.0381 11.6546 28.9719 11.3841 27.7818 11.2858C26.5917 11.1382 25.4512 11.0645 24.3602 11.0645H18.4097V23.4567Z" fill="#0078BF"/>
<path d="M50.6828 1.32774H71.0635C73.7412 1.32774 76.2702 1.5982 78.6504 2.13913C81.0803 2.63089 83.1877 3.49146 84.9729 4.72084C86.8077 5.90106 88.2457 7.52385 89.2871 9.58922C90.378 11.6054 90.9235 14.138 90.9235 17.1868C90.9235 20.875 89.9565 24.0222 88.0226 26.6285C86.0886 29.1856 83.2621 30.8084 79.543 31.4969L92.9318 53.5521H79.0223L68.0138 32.6771H62.2864V53.5521H50.6828V1.32774ZM62.2864 22.9404H69.1295C70.1709 22.9404 71.2618 22.9158 72.4023 22.8666C73.5925 22.7682 74.6586 22.547 75.6008 22.2027C76.5429 21.8093 77.3116 21.2192 77.9066 20.4324C78.5513 19.6456 78.8736 18.5392 78.8736 17.1131C78.8736 15.7853 78.6008 14.7281 78.0554 13.9413C77.5099 13.1544 76.8157 12.5643 75.9727 12.1709C75.1297 11.7284 74.1627 11.4333 73.0718 11.2858C71.9808 11.1382 70.9147 11.0645 69.8733 11.0645H62.2864V22.9404Z" fill="#0078BF"/>
<path d="M93.1131 27.4399C93.1131 23.26 93.8073 19.4735 95.1958 16.0804C96.6339 12.6873 98.6174 9.81051 101.146 7.45009C103.675 5.04049 106.675 3.1964 110.147 1.91784C113.618 0.63928 117.411 0 121.527 0C125.643 0 129.436 0.63928 132.908 1.91784C136.379 3.1964 139.379 5.04049 141.908 7.45009C144.437 9.81051 146.395 12.6873 147.784 16.0804C149.222 19.4735 149.941 23.26 149.941 27.4399C149.941 31.6198 149.222 35.4063 147.784 38.7995C146.395 42.1926 144.437 45.0939 141.908 47.5035C139.379 49.8639 136.379 51.6834 132.908 52.962C129.436 54.2406 125.643 54.8798 121.527 54.8798C117.411 54.8798 113.618 54.2406 110.147 52.962C106.675 51.6834 103.675 49.8639 101.146 47.5035C98.6174 45.0939 96.6339 42.1926 95.1958 38.7995C93.8073 35.4063 93.1131 31.6198 93.1131 27.4399ZM105.163 27.4399C105.163 29.8987 105.535 32.1608 106.279 34.2261C107.072 36.2423 108.188 38.0126 109.626 39.5371C111.064 41.0124 112.775 42.168 114.758 43.004C116.791 43.8399 119.048 44.2579 121.527 44.2579C124.006 44.2579 126.238 43.8399 128.221 43.004C130.255 42.168 131.99 41.0124 133.428 39.5371C134.866 38.0126 135.957 36.2423 136.701 34.2261C137.494 32.1608 137.891 29.8987 137.891 27.4399C137.891 25.0303 137.494 22.7928 136.701 20.7275C135.957 18.6621 134.866 16.8918 133.428 15.4165C131.99 13.8921 130.255 12.7119 128.221 11.8759C126.238 11.0399 124.006 10.6219 121.527 10.6219C119.048 10.6219 116.791 11.0399 114.758 11.8759C112.775 12.7119 111.064 13.8921 109.626 15.4165C108.188 16.8918 107.072 18.6621 106.279 20.7275C105.535 22.7928 105.163 25.0303 105.163 27.4399Z" fill="#0078BF"/>
<path d="M202.531 49.8639C199.11 51.6343 195.54 52.9128 191.82 53.6996C188.101 54.4864 184.308 54.8798 180.44 54.8798C176.324 54.8798 172.531 54.2406 169.06 52.962C165.588 51.6834 162.588 49.8639 160.059 47.5035C157.53 45.0939 155.547 42.1926 154.109 38.7995C152.72 35.4063 152.026 31.6198 152.026 27.4399C152.026 23.26 152.72 19.4735 154.109 16.0804C155.547 12.6873 157.53 9.81051 160.059 7.45009C162.588 5.04049 165.588 3.1964 169.06 1.91784C172.531 0.63928 176.324 0 180.44 0C184.655 0 188.523 0.516342 192.044 1.54903C195.614 2.53253 198.738 4.25368 201.416 6.71245L193.234 15.564C191.647 13.9412 189.862 12.7119 187.878 11.8759C185.895 11.0399 183.415 10.6219 180.44 10.6219C177.961 10.6219 175.704 11.0399 173.671 11.8759C171.688 12.7119 169.977 13.8921 168.539 15.4165C167.101 16.8918 165.985 18.6621 165.192 20.7275C164.448 22.7928 164.076 25.0303 164.076 27.4399C164.076 29.8987 164.448 32.1608 165.192 34.2261C165.985 36.2423 167.101 38.0126 168.539 39.5371C169.977 41.0124 171.688 42.168 173.671 43.004C175.704 43.8399 177.961 44.2579 180.44 44.2579C182.969 44.2579 185.151 43.9875 186.986 43.4465C188.82 42.8564 190.283 42.2663 191.374 41.6762V33.1934H181.928V22.5715H202.531V49.8639Z" fill="#0078BF"/>
<path d="M210.217 1.32774H245.994V11.9496H221.82V21.6864H244.656V32.3083H221.82V42.9302H247.333V53.5521H210.217V1.32774Z" fill="#0078BF"/>
<path d="M263.837 11.5071H248.812V1.32774H290.466V11.5071H275.441V53.5521H263.837V11.5071Z" fill="#0078BF"/>
<path d="M303.574 11.5071H288.548V1.32774H330.202V11.5071H315.177V53.5521H303.574V11.5071Z" fill="#0078BF"/>
<path d="M332.971 1.32774H344.574V53.5521H332.971V1.32774Z" fill="#0078BF"/>
<path d="M369.485 1.32774H379.08L401.99 53.5521H388.899L384.361 42.4876H363.906L359.518 53.5521H346.724L369.485 1.32774ZM373.948 16.523L367.551 32.7509H380.419L373.948 16.523Z" fill="#0078BF"/>
<path d="M404.311 1.32774H421.866L433.99 35.4063H434.139L446.337 1.32774H463.817V53.5521H452.213V13.4987H452.065L438.23 53.5521H429.378L416.064 13.4987H415.915V53.5521H404.311V1.32774Z" fill="#0078BF"/>
<path d="M468.751 27.4399C468.751 23.26 469.445 19.4735 470.834 16.0804C472.272 12.6873 474.255 9.81051 476.784 7.45009C479.313 5.04049 482.314 3.1964 485.785 1.91784C489.256 0.63928 493.049 0 497.165 0C501.281 0 505.074 0.63928 508.546 1.91784C512.017 3.1964 515.017 5.04049 517.546 7.45009C520.075 9.81051 522.034 12.6873 523.422 16.0804C524.86 19.4735 525.579 23.26 525.579 27.4399C525.579 31.6198 524.86 35.4063 523.422 38.7995C522.034 42.1926 520.075 45.0939 517.546 47.5035C515.017 49.8639 512.017 51.6834 508.546 52.962C505.074 54.2406 501.281 54.8798 497.165 54.8798C493.049 54.8798 489.256 54.2406 485.785 52.962C482.314 51.6834 479.313 49.8639 476.784 47.5035C474.255 45.0939 472.272 42.1926 470.834 38.7995C469.445 35.4063 468.751 31.6198 468.751 27.4399ZM480.801 27.4399C480.801 29.8987 481.173 32.1608 481.917 34.2261C482.71 36.2423 483.826 38.0126 485.264 39.5371C486.702 41.0124 488.413 42.168 490.396 43.004C492.43 43.8399 494.686 44.2579 497.165 44.2579C499.645 44.2579 501.876 43.8399 503.86 43.004C505.893 42.168 507.628 41.0124 509.066 39.5371C510.504 38.0126 511.595 36.2423 512.339 34.2261C513.133 32.1608 513.529 29.8987 513.529 27.4399C513.529 25.0303 513.133 22.7928 512.339 20.7275C511.595 18.6621 510.504 16.8918 509.066 15.4165C507.628 13.8921 505.893 12.7119 503.86 11.8759C501.876 11.0399 499.645 10.6219 497.165 10.6219C494.686 10.6219 492.43 11.0399 490.396 11.8759C488.413 12.7119 486.702 13.8921 485.264 15.4165C483.826 16.8918 482.71 18.6621 481.917 20.7275C481.173 22.7928 480.801 25.0303 480.801 27.4399Z" fill="#0078BF"/>
<path d="M538.939 1.32774H574.716L573.229 11.9496H549.055L547.641 21.6864H570.477L568.989 32.3083H546.154L544.666 42.9302H570.179L568.691 53.5521H531.575L538.939 1.32774Z" fill="#86BFE1"/>
<path d="M28.6371 115.79H2.92879C1.89829 115.79 1.13898 115.575 0.650843 115.144C0.216948 114.66 0 113.907 0 112.885V103.446C0 102.424 0.216948 101.698 0.650843 101.268C1.13898 100.784 1.89829 100.542 2.92879 100.542H24.8134C25.5185 100.542 26.0337 100.326 26.3591 99.8962C26.7388 99.4121 26.9286 98.8473 26.9286 98.2019C26.9286 97.2876 26.7388 96.6152 26.3591 96.1849C26.0337 95.7547 25.5185 95.5126 24.8134 95.4588L12.6101 93.7646C8.8135 93.2267 5.74911 91.9897 3.41693 90.0534C1.13898 88.1171 0 84.8899 0 80.3719V71.9007C0 67.3289 1.49152 63.8329 4.47455 61.4125C7.45758 58.9384 11.5796 57.7013 16.8406 57.7013H39.6201C40.6506 57.7013 41.3828 57.9433 41.8167 58.4274C42.3048 58.8577 42.5489 59.5838 42.5489 60.6057V70.2065C42.5489 71.2284 42.3048 71.9814 41.8167 72.4655C41.3828 72.8957 40.6506 73.1109 39.6201 73.1109H20.6643C19.9592 73.1109 19.4168 73.3529 19.0372 73.837C18.6575 74.2673 18.4677 74.832 18.4677 75.5312C18.4677 76.2304 18.6575 76.8221 19.0372 77.3062C19.4168 77.7902 19.9592 78.0592 20.6643 78.1129L32.7862 79.7265C36.5828 80.2644 39.6472 81.5014 41.9794 83.4377C44.3116 85.374 45.4777 88.6012 45.4777 93.1191V101.59C45.4777 106.162 43.959 109.685 40.9218 112.159C37.9387 114.58 33.8438 115.79 28.6371 115.79ZM35.2269 64.9623H17.166C14.6711 64.9623 12.6643 65.6616 11.1457 67.06C9.62705 68.4046 8.86774 70.1527 8.86774 72.3041V78.9197C8.86774 81.1249 9.30163 82.6578 10.1694 83.5184C11.0915 84.3252 12.2575 84.863 13.6677 85.132L30.8337 88.6012C32.3523 88.9239 33.5455 89.5693 34.4133 90.5374C35.3354 91.4518 35.7964 93.1729 35.7964 95.7009V100.38C35.7964 102.532 35.0371 104.307 33.5184 105.705C32.054 107.05 30.0744 107.722 27.5795 107.722H7.32198V108.529H27.5795C30.3456 108.529 32.5422 107.776 34.1693 106.27C35.7964 104.71 36.6099 102.747 36.6099 100.38V95.7009C36.6099 92.904 36.0676 90.9677 34.9828 89.892C33.9523 88.8163 32.6235 88.1171 30.9964 87.7944L13.8304 84.3252C12.583 84.1101 11.5796 83.626 10.8203 82.873C10.0609 82.12 9.68129 80.8022 9.68129 78.9197V72.3041C9.68129 70.4216 10.3593 68.8618 11.7152 67.6247C13.0711 66.3877 14.888 65.7691 17.166 65.7691H35.2269V64.9623Z" fill="#F15060"/>
<path d="M66.6618 115.79H54.0518C53.0213 115.79 52.2619 115.575 51.7738 115.144C51.3399 114.66 51.123 113.907 51.123 112.885V60.6057C51.123 59.5838 51.3399 58.8577 51.7738 58.4274C52.2619 57.9433 53.0213 57.7013 54.0518 57.7013H78.9465C86.3227 57.7013 91.3668 59.1535 94.0786 62.0579C96.7904 64.9623 98.1464 68.7542 98.1464 73.4336V83.7604C98.1464 88.4398 96.7904 92.2317 94.0786 95.1361C91.3668 98.0405 86.3227 99.4928 78.9465 99.4928H69.5906V112.885C69.5906 113.907 69.3466 114.66 68.8584 115.144C68.4245 115.575 67.6923 115.79 66.6618 115.79ZM77.8075 92.6351C80.3567 92.6351 82.4177 92.3661 83.9905 91.8283C85.6176 91.2904 86.8651 90.5643 87.7329 89.65C88.6007 88.6818 89.1973 87.5523 89.5227 86.2615C89.8481 84.9168 90.0108 83.4646 90.0108 81.9048V75.9346C90.0108 74.3748 89.8481 72.9226 89.5227 71.578C89.1973 70.2333 88.6007 69.077 87.7329 68.1088C86.8651 67.1407 85.6176 66.3877 83.9905 65.8498C82.4177 65.2582 80.3567 64.9623 77.8075 64.9623H60.2348V108.529H61.0483V92.6351H77.8075ZM61.0483 91.8283V65.7691H77.8075C80.1939 65.7691 82.1194 66.0381 83.5838 66.5759C85.1024 67.06 86.2685 67.7592 87.082 68.6736C87.8956 69.5879 88.438 70.6636 88.7092 71.9007C89.0346 73.1378 89.1973 74.4824 89.1973 75.9346V81.9048C89.1973 83.3571 89.0346 84.7017 88.7092 85.9388C88.438 87.1221 87.8956 88.1709 87.082 89.0852C86.2685 89.9458 85.1024 90.6181 83.5838 91.1022C82.1194 91.5863 80.1939 91.8283 77.8075 91.8283H61.0483ZM69.4279 72.7882V84.9706H76.7499C78.3228 84.9706 79.3533 84.5672 79.8414 83.7604C80.3296 82.9537 80.5736 82.0393 80.5736 81.0174V76.7414C80.5736 75.7195 80.3296 74.8051 79.8414 73.9983C79.3533 73.1916 78.3228 72.7882 76.7499 72.7882H69.4279Z" fill="#F15060"/>
<path d="M144.002 115.79H106.253C105.222 115.79 104.463 115.575 103.975 115.144C103.541 114.66 103.324 113.907 103.324 112.885V60.6057C103.324 59.5838 103.541 58.8577 103.975 58.4274C104.463 57.9433 105.222 57.7013 106.253 57.7013H144.002C145.032 57.7013 145.764 57.9433 146.198 58.4274C146.686 58.8577 146.93 59.5838 146.93 60.6057V70.0451C146.93 71.067 146.686 71.82 146.198 72.3041C145.764 72.7344 145.032 72.9495 144.002 72.9495H121.547V79.1618H137.412C138.442 79.1618 139.174 79.4038 139.608 79.8879C140.097 80.3182 140.341 81.0443 140.341 82.0662V90.6988C140.341 91.7207 140.097 92.4737 139.608 92.9578C139.174 93.3881 138.442 93.6032 137.412 93.6032H121.547V100.542H144.002C145.032 100.542 145.764 100.784 146.198 101.268C146.686 101.698 146.93 102.424 146.93 103.446V112.885C146.93 113.907 146.686 114.66 146.198 115.144C145.764 115.575 145.032 115.79 144.002 115.79ZM139.608 107.722H113.005V86.8262H133.019V86.0194H113.005V65.7691H139.608V64.9623H112.192V108.529H139.608V107.722Z" fill="#F15060"/>
<path d="M180.636 65.7691C183.51 65.7691 185.625 66.549 186.981 68.1088C188.392 69.6686 189.097 71.6856 189.097 74.1597V79.8072C189.097 82.7654 188.527 85.0513 187.388 86.6649C186.249 88.2784 183.998 89.0852 180.636 89.0852H162.9V65.7691H180.636ZM171.687 72.2234V82.5503H177.788C179.198 82.5503 180.148 82.2007 180.636 81.5014C181.124 80.7484 181.368 79.8341 181.368 78.7584V76.0153C181.368 74.9396 181.124 74.0521 180.636 73.3529C180.148 72.5999 179.198 72.2234 177.788 72.2234H171.687ZM162.9 108.529V89.8113H185.924C189.015 89.8113 191.293 90.4837 192.758 91.8283C194.222 93.1192 194.954 95.0823 194.954 97.7178V108.529H195.768V97.7178C195.768 94.921 194.954 92.7964 193.327 91.3442C191.7 89.8382 189.232 89.0852 185.924 89.0852H185.029C186.981 88.4936 188.283 87.4179 188.934 85.8581C189.585 84.2445 189.91 82.2007 189.91 79.7265V74.1597C189.91 71.5242 189.151 69.3459 187.632 67.6247C186.114 65.8498 183.781 64.9623 180.636 64.9623H162.087V108.529H162.9ZM168.758 115.79H156.229C155.199 115.79 154.439 115.575 153.951 115.144C153.517 114.66 153.3 113.907 153.3 112.885V60.6057C153.3 59.5838 153.517 58.8577 153.951 58.4274C154.439 57.9433 155.199 57.7013 156.229 57.7013H183.32C189.395 57.7013 193.571 58.9652 195.849 61.4932C198.181 63.9673 199.347 67.1945 199.347 71.1746V74.8858C199.347 77.1448 198.995 79.0811 198.29 80.6947C197.639 82.2544 196.473 83.3839 194.792 84.0832C197.72 84.4059 200.08 85.5892 201.869 87.633C203.713 89.6769 204.636 92.393 204.636 95.7815V112.885C204.636 113.907 204.391 114.66 203.903 115.144C203.469 115.575 202.737 115.79 201.707 115.79H189.097C188.066 115.79 187.307 115.575 186.819 115.144C186.385 114.66 186.168 113.907 186.168 112.885V100.542C186.168 99.3583 185.924 98.4977 185.436 97.9599C185.002 97.3682 184.215 97.0724 183.076 97.0724H171.687V112.885C171.687 113.907 171.442 114.66 170.954 115.144C170.52 115.575 169.788 115.79 168.758 115.79Z" fill="#F15060"/>
<path d="M212.134 115.79C211.103 115.79 210.344 115.575 209.856 115.144C209.422 114.66 209.205 113.907 209.205 112.885V103.285C209.205 102.263 209.422 101.537 209.856 101.106C210.344 100.622 211.103 100.38 212.134 100.38H220.188V73.2722H212.134C211.103 73.2722 210.344 73.0571 209.856 72.6268C209.422 72.1427 209.205 71.3897 209.205 70.3678V60.6057C209.205 59.5838 209.422 58.8577 209.856 58.4274C210.344 57.9433 211.103 57.7013 212.134 57.7013H246.791C247.821 57.7013 248.554 57.9433 248.988 58.4274C249.476 58.8577 249.72 59.5838 249.72 60.6057V70.3678C249.72 71.3897 249.476 72.1427 248.988 72.6268C248.554 73.0571 247.821 73.2722 246.791 73.2722H238.899V100.38H246.791C247.821 100.38 248.554 100.622 248.988 101.106C249.476 101.537 249.72 102.263 249.72 103.285V112.885C249.72 113.907 249.476 114.66 248.988 115.144C248.554 115.575 247.821 115.79 246.791 115.79H212.134ZM242.398 108.529V107.722H229.95V65.7691H242.398V64.9623H216.527V65.7691H229.137V107.722H216.527V108.529H242.398Z" fill="#F15060"/>
<path d="M285.147 84.7286C284.171 84.7286 283.466 84.5135 283.032 84.0832C282.598 83.6529 281.92 82.7385 280.998 81.3401L271.073 66.3339C270.748 65.796 270.368 65.4464 269.934 65.2851C269.5 65.0699 269.066 64.9623 268.632 64.9623H267.249C266.544 64.9623 266.002 65.1775 265.622 65.6078C265.297 65.9843 265.134 66.6028 265.134 67.4634V108.529H265.948V67.4634C265.948 67.0331 266.029 66.6566 266.192 66.3339C266.354 65.9574 266.707 65.7691 267.249 65.7691H268.47C268.849 65.7691 269.175 65.8229 269.446 65.9305C269.771 66.0381 270.097 66.3608 270.422 66.8986L280.347 81.7435C281.324 83.1957 282.056 84.1907 282.544 84.7286C283.086 85.2664 283.954 85.5354 285.147 85.5354C286.341 85.5354 287.181 85.2664 287.669 84.7286C288.212 84.1907 288.971 83.1957 289.947 81.7435L299.873 66.8986C300.198 66.3608 300.496 66.0381 300.768 65.9305C301.039 65.8229 301.364 65.7691 301.744 65.7691H302.964C303.507 65.7691 303.859 65.9574 304.022 66.3339C304.239 66.6566 304.347 67.0331 304.347 67.4634V108.529H305.161V67.4634C305.161 66.6028 304.971 65.9843 304.591 65.6078C304.266 65.1775 303.724 64.9623 302.964 64.9623H301.581C301.147 64.9623 300.713 65.0699 300.28 65.2851C299.9 65.4464 299.547 65.796 299.222 66.3339L289.297 81.3401C288.375 82.7385 287.697 83.6529 287.263 84.0832C286.829 84.5135 286.124 84.7286 285.147 84.7286ZM271.561 115.79H259.439C258.409 115.79 257.649 115.575 257.161 115.144C256.727 114.66 256.51 113.907 256.51 112.885V60.6057C256.51 59.5838 256.727 58.8577 257.161 58.4274C257.649 57.9433 258.409 57.7013 259.439 57.7013H272.537C273.405 57.7013 274.11 57.8895 274.653 58.266C275.249 58.6425 275.792 59.2611 276.28 60.1216L283.602 73.2722C283.873 73.7563 284.09 74.1059 284.253 74.3211C284.469 74.5362 284.741 74.6438 285.066 74.6438H285.798C286.124 74.6438 286.368 74.5362 286.53 74.3211C286.747 74.1059 286.991 73.7563 287.263 73.2722L294.503 60.1216C294.991 59.2611 295.507 58.6425 296.049 58.266C296.646 57.8895 297.378 57.7013 298.246 57.7013H311.425C312.456 57.7013 313.188 57.9433 313.622 58.4274C314.11 58.8577 314.354 59.5838 314.354 60.6057V112.885C314.354 113.907 314.11 114.66 313.622 115.144C313.188 115.575 312.456 115.79 311.425 115.79H298.897C297.866 115.79 297.107 115.575 296.619 115.144C296.185 114.66 295.968 113.907 295.968 112.885V84.4865L291.168 93.2805C290.68 94.1949 290.083 94.8672 289.378 95.2975C288.727 95.674 287.886 95.8622 286.856 95.8622H283.602C282.571 95.8622 281.703 95.674 280.998 95.2975C280.347 94.8672 279.778 94.1949 279.29 93.2805L274.49 84.4865V112.885C274.49 113.907 274.246 114.66 273.758 115.144C273.324 115.575 272.592 115.79 271.561 115.79Z" fill="#F15060"/>
<path d="M362.975 115.79H325.226C324.195 115.79 323.436 115.575 322.948 115.144C322.514 114.66 322.297 113.907 322.297 112.885V60.6057C322.297 59.5838 322.514 58.8577 322.948 58.4274C323.436 57.9433 324.195 57.7013 325.226 57.7013H362.975C364.005 57.7013 364.737 57.9433 365.171 58.4274C365.659 58.8577 365.903 59.5838 365.903 60.6057V70.0451C365.903 71.067 365.659 71.82 365.171 72.3041C364.737 72.7344 364.005 72.9495 362.975 72.9495H340.521V79.1618H356.385C357.415 79.1618 358.148 79.4038 358.582 79.8879C359.07 80.3182 359.314 81.0443 359.314 82.0662V90.6988C359.314 91.7207 359.07 92.4737 358.582 92.9578C358.148 93.3881 357.415 93.6032 356.385 93.6032H340.521V100.542H362.975C364.005 100.542 364.737 100.784 365.171 101.268C365.659 101.698 365.903 102.424 365.903 103.446V112.885C365.903 113.907 365.659 114.66 365.171 115.144C364.737 115.575 364.005 115.79 362.975 115.79ZM358.582 107.722H331.978V86.8262H351.992V86.0194H331.978V65.7691H358.582V64.9623H331.165V108.529H358.582V107.722Z" fill="#F15060"/>
<path d="M383.012 65.6078C382.741 65.3389 382.524 65.1506 382.361 65.043C382.199 64.9355 382.009 64.8817 381.792 64.8817C381.575 64.8817 381.358 64.9623 381.141 65.1237C380.924 65.2851 380.816 65.5271 380.816 65.8498V108.529H381.629V66.0112C381.629 65.9574 381.629 65.9036 381.629 65.8498C381.683 65.796 381.738 65.7691 381.792 65.7691C381.846 65.7691 381.9 65.796 381.955 65.8498C382.063 65.9036 382.144 65.9574 382.199 66.0112L412.951 100.219V108.529H413.765V64.9623H412.951V99.0087L383.012 65.6078ZM387.405 115.79H375.202C374.172 115.79 373.412 115.575 372.924 115.144C372.49 114.66 372.273 113.907 372.273 112.885V60.6057C372.273 59.5838 372.49 58.8577 372.924 58.4274C373.412 57.9433 374.172 57.7013 375.202 57.7013H383.663C384.694 57.7013 385.561 57.8626 386.266 58.1854C387.026 58.5081 387.758 59.0728 388.463 59.8796L404.246 77.7902V60.6057C404.246 59.5838 404.463 58.8577 404.897 58.4274C405.385 57.9433 406.144 57.7013 407.175 57.7013H419.378C420.409 57.7013 421.141 57.9433 421.575 58.4274C422.063 58.8577 422.307 59.5838 422.307 60.6057V112.885C422.307 113.907 422.063 114.66 421.575 115.144C421.141 115.575 420.409 115.79 419.378 115.79H407.175C406.144 115.79 405.385 115.575 404.897 115.144C404.463 114.66 404.246 113.907 404.246 112.885V102.962L390.334 86.2615V112.885C390.334 113.907 390.09 114.66 389.602 115.144C389.168 115.575 388.436 115.79 387.405 115.79Z" fill="#F15060"/>
<path d="M457.935 115.79H444.755C443.725 115.79 442.965 115.575 442.477 115.144C442.043 114.66 441.827 113.907 441.827 112.885V73.2722H429.867C428.837 73.2722 428.077 73.0571 427.589 72.6268C427.155 72.1427 426.938 71.3897 426.938 70.3678V60.6057C426.938 59.5838 427.155 58.8577 427.589 58.4274C428.077 57.9433 428.837 57.7013 429.867 57.7013H472.823C473.853 57.7013 474.586 57.9433 475.019 58.4274C475.508 58.8577 475.752 59.5838 475.752 60.6057V70.3678C475.752 71.3897 475.508 72.1427 475.019 72.6268C474.586 73.0571 473.853 73.2722 472.823 73.2722H460.864V112.885C460.864 113.907 460.62 114.66 460.131 115.144C459.698 115.575 458.965 115.79 457.935 115.79ZM450.938 108.529H451.752V65.7691H468.43V64.9623H434.26V65.7691H450.938V108.529Z" fill="#F15060"/>
<path d="M482.036 115.79C481.006 115.79 480.247 115.575 479.758 115.144C479.325 114.66 479.108 113.907 479.108 112.885V103.285C479.108 102.263 479.325 101.537 479.758 101.106C480.247 100.622 481.006 100.38 482.036 100.38H490.091V73.2722H482.036C481.006 73.2722 480.247 73.0571 479.758 72.6268C479.325 72.1427 479.108 71.3897 479.108 70.3678V60.6057C479.108 59.5838 479.325 58.8577 479.758 58.4274C480.247 57.9433 481.006 57.7013 482.036 57.7013H516.694C517.724 57.7013 518.456 57.9433 518.89 58.4274C519.379 58.8577 519.623 59.5838 519.623 60.6057V70.3678C519.623 71.3897 519.379 72.1427 518.89 72.6268C518.456 73.0571 517.724 73.2722 516.694 73.2722H508.802V100.38H516.694C517.724 100.38 518.456 100.622 518.89 101.106C519.379 101.537 519.623 102.263 519.623 103.285V112.885C519.623 113.907 519.379 114.66 518.89 115.144C518.456 115.575 517.724 115.79 516.694 115.79H482.036ZM512.301 108.529V107.722H499.853V65.7691H512.301V64.9623H486.43V65.7691H499.04V107.722H486.43V108.529H512.301Z" fill="#F15060"/>
<path d="M534.63 91.3442C534.63 89.892 534.739 88.5474 534.956 87.3103C535.227 86.0732 535.552 84.9168 535.932 83.8411L541.138 70.6098C541.681 69.2652 542.278 68.1357 542.928 67.2213C543.579 66.2532 544.718 65.7691 546.345 65.7691H554.318C555.837 65.7691 556.922 66.2532 557.572 67.2213C558.223 68.1357 558.847 69.2921 559.443 70.6905L565.057 83.8411C565.437 84.9168 565.735 86.0732 565.952 87.3103C566.223 88.5474 566.359 89.892 566.359 91.3442V93.8453H534.63V91.3442ZM547.647 74.6438L543.823 86.9069H556.596L552.772 74.6438C552.555 74.1597 552.311 73.8101 552.04 73.5949C551.823 73.3798 551.552 73.2722 551.227 73.2722H549.193C548.867 73.2722 548.569 73.3798 548.298 73.5949C548.081 73.8101 547.864 74.1597 547.647 74.6438ZM566.359 108.529H567.172V91.3442C567.172 89.8382 567.037 88.4667 566.766 87.2296C566.549 85.9388 566.223 84.7017 565.789 83.5184L560.176 70.3678C559.525 68.808 558.82 67.5172 558.06 66.4952C557.355 65.4733 556.108 64.9623 554.318 64.9623H546.345C544.501 64.9623 543.2 65.4733 542.44 66.4952C541.681 67.5172 541.003 68.7811 540.406 70.2871L535.2 83.5184C534.766 84.7017 534.413 85.9388 534.142 87.2296C533.925 88.4667 533.817 89.8382 533.817 91.3442V108.529H534.63V94.652H566.359V108.529ZM543.01 112.885C543.01 113.907 542.766 114.66 542.277 115.144C541.844 115.575 541.111 115.79 540.081 115.79H528.122C527.091 115.79 526.332 115.575 525.844 115.144C525.41 114.66 525.193 113.907 525.193 112.885V91.5863C525.193 89.9727 525.437 88.1171 525.925 86.0194C526.467 83.9218 527.281 81.4746 528.366 78.6777L535.444 60.3637C535.769 59.4493 536.257 58.777 536.908 58.3467C537.613 57.9164 538.508 57.7013 539.593 57.7013H561.477C562.508 57.7013 563.349 57.9164 563.999 58.3467C564.704 58.777 565.22 59.4493 565.545 60.3637L572.623 78.6777C573.708 81.4746 574.494 83.9218 574.982 86.0194C575.525 88.1171 575.796 89.9727 575.796 91.5863V112.885C575.796 113.907 575.552 114.66 575.064 115.144C574.63 115.575 573.898 115.79 572.867 115.79H560.582C559.498 115.79 558.684 115.575 558.142 115.144C557.654 114.66 557.41 113.907 557.41 112.885V101.59H543.01V112.885Z" fill="#F15060"/>
<path d="M611.224 84.7286C610.247 84.7286 609.542 84.5135 609.108 84.0832C608.675 83.6529 607.997 82.7385 607.075 81.3401L597.149 66.3339C596.824 65.796 596.444 65.4464 596.01 65.2851C595.576 65.0699 595.142 64.9623 594.709 64.9623H593.325C592.62 64.9623 592.078 65.1775 591.698 65.6078C591.373 65.9843 591.21 66.6028 591.21 67.4634V108.529H592.024V67.4634C592.024 67.0331 592.105 66.6566 592.268 66.3339C592.431 65.9574 592.783 65.7691 593.325 65.7691H594.546C594.925 65.7691 595.251 65.8229 595.522 65.9305C595.848 66.0381 596.173 66.3608 596.498 66.8986L606.424 81.7435C607.4 83.1957 608.132 84.1907 608.62 84.7286C609.163 85.2664 610.03 85.5354 611.224 85.5354C612.417 85.5354 613.258 85.2664 613.746 84.7286C614.288 84.1907 615.047 83.1957 616.024 81.7435L625.949 66.8986C626.274 66.3608 626.573 66.0381 626.844 65.9305C627.115 65.8229 627.44 65.7691 627.82 65.7691H629.04C629.583 65.7691 629.935 65.9574 630.098 66.3339C630.315 66.6566 630.424 67.0331 630.424 67.4634V108.529H631.237V67.4634C631.237 66.6028 631.047 65.9843 630.668 65.6078C630.342 65.1775 629.8 64.9623 629.04 64.9623H627.657C627.224 64.9623 626.79 65.0699 626.356 65.2851C625.976 65.4464 625.624 65.796 625.298 66.3339L615.373 81.3401C614.451 82.7385 613.773 83.6529 613.339 84.0832C612.905 84.5135 612.2 84.7286 611.224 84.7286ZM597.637 115.79H585.515C584.485 115.79 583.726 115.575 583.237 115.144C582.804 114.66 582.587 113.907 582.587 112.885V60.6057C582.587 59.5838 582.804 58.8577 583.237 58.4274C583.726 57.9433 584.485 57.7013 585.515 57.7013H598.614C599.481 57.7013 600.186 57.8895 600.729 58.266C601.325 58.6425 601.868 59.2611 602.356 60.1216L609.678 73.2722C609.949 73.7563 610.166 74.1059 610.329 74.3211C610.546 74.5362 610.817 74.6438 611.142 74.6438H611.875C612.2 74.6438 612.444 74.5362 612.607 74.3211C612.824 74.1059 613.068 73.7563 613.339 73.2722L620.58 60.1216C621.068 59.2611 621.583 58.6425 622.125 58.266C622.722 57.8895 623.454 57.7013 624.322 57.7013H637.501C638.532 57.7013 639.264 57.9433 639.698 58.4274C640.186 58.8577 640.43 59.5838 640.43 60.6057V112.885C640.43 113.907 640.186 114.66 639.698 115.144C639.264 115.575 638.532 115.79 637.501 115.79H624.973C623.942 115.79 623.183 115.575 622.695 115.144C622.261 114.66 622.044 113.907 622.044 112.885V84.4865L617.244 93.2805C616.756 94.1949 616.159 94.8672 615.454 95.2975C614.803 95.674 613.963 95.8622 612.932 95.8622H609.678C608.647 95.8622 607.78 95.674 607.075 95.2975C606.424 94.8672 605.854 94.1949 605.366 93.2805L600.566 84.4865V112.885C600.566 113.907 600.322 114.66 599.834 115.144C599.4 115.575 598.668 115.79 597.637 115.79Z" fill="#F15060"/>
<path d="M698 100.542C698 103.016 697.62 105.275 696.861 107.319C696.156 109.309 694.854 111.03 692.956 112.482C691.112 113.88 688.536 114.983 685.227 115.79C681.973 116.597 677.824 117 672.78 117C667.736 117 663.56 116.597 660.251 115.79C656.943 114.983 654.339 113.88 652.441 112.482C650.597 111.03 649.295 109.309 648.536 107.319C647.831 105.275 647.478 103.016 647.478 100.542V73.0302C647.478 70.5561 647.831 68.324 648.536 66.3339C649.295 64.29 650.597 62.542 652.441 61.0898C654.339 59.6376 656.943 58.5081 660.251 57.7013C663.56 56.8945 667.736 56.4911 672.78 56.4911C677.824 56.4911 681.973 56.8945 685.227 57.7013C688.536 58.5081 691.112 59.6376 692.956 61.0898C694.854 62.542 696.156 64.29 696.861 66.3339C697.62 68.324 698 70.5561 698 73.0302V100.542ZM689.132 98.686V74.8858C689.132 71.6587 687.966 69.0501 685.634 67.06C683.302 65.0161 678.963 63.9942 672.617 63.9942C666.271 63.9942 661.96 65.0161 659.682 67.06C657.404 69.0501 656.265 71.6587 656.265 74.8858V98.686C656.265 101.913 657.404 104.549 659.682 106.592C661.96 108.583 666.271 109.578 672.617 109.578C678.963 109.578 683.302 108.583 685.634 106.592C687.966 104.549 689.132 101.913 689.132 98.686ZM657.078 98.686V74.8858C657.078 71.8738 658.163 69.4535 660.332 67.6247C662.502 65.7422 666.597 64.801 672.617 64.801C678.637 64.801 682.759 65.7422 684.983 67.6247C687.207 69.4535 688.319 71.8738 688.319 74.8858V98.686C688.319 101.698 687.207 104.145 684.983 106.028C682.759 107.856 678.637 108.771 672.617 108.771C666.597 108.771 662.502 107.856 660.332 106.028C658.163 104.145 657.078 101.698 657.078 98.686ZM665.946 97.6372C665.946 98.7129 666.353 99.6272 667.166 100.38C667.98 101.079 669.851 101.429 672.78 101.429C675.709 101.429 677.58 101.079 678.393 100.38C679.207 99.6272 679.614 98.7129 679.614 97.6372V75.9346C679.614 74.9127 679.207 74.0521 678.393 73.3529C677.58 72.5999 675.709 72.2234 672.78 72.2234C669.851 72.2234 667.98 72.5999 667.166 73.3529C666.353 74.0521 665.946 74.9127 665.946 75.9346V97.6372Z" fill="#F15060"/>
</svg>
