<svg width="620" height="496" viewBox="0 0 620 496" fill="none" xmlns="http://www.w3.org/2000/svg">
<path d="M39.424 218.602H43.344C44.856 218.602 46.1627 218.378 47.264 217.93C48.384 217.464 49.308 216.857 50.036 216.11C50.7827 215.345 51.3333 214.486 51.688 213.534C52.0427 212.564 52.22 211.565 52.22 210.538C52.22 209.512 52.0427 208.522 51.688 207.57C51.3333 206.6 50.7827 205.741 50.036 204.994C49.308 204.229 48.384 203.622 47.264 203.174C46.1627 202.708 44.856 202.474 43.344 202.474H39.424V218.602ZM37.408 200.626H43.988C45.22 200.626 46.452 200.832 47.684 201.242C48.9347 201.653 50.0547 202.278 51.044 203.118C52.052 203.94 52.864 204.976 53.48 206.226C54.096 207.458 54.404 208.896 54.404 210.538C54.404 212.2 54.096 213.646 53.48 214.878C52.864 216.11 52.052 217.146 51.044 217.986C50.0547 218.808 48.9347 219.424 47.684 219.834C46.452 220.245 45.22 220.45 43.988 220.45H37.408V200.626ZM59.3379 202.306C59.3379 202.698 59.1979 203.025 58.9179 203.286C58.6379 203.529 58.3299 203.65 57.9939 203.65C57.6579 203.65 57.3499 203.529 57.0699 203.286C56.7899 203.025 56.6499 202.698 56.6499 202.306C56.6499 201.914 56.7899 201.597 57.0699 201.354C57.3499 201.093 57.6579 200.962 57.9939 200.962C58.3299 200.962 58.6379 201.093 58.9179 201.354C59.1979 201.597 59.3379 201.914 59.3379 202.306ZM58.9179 220.45H57.0699V207.346H58.9179V220.45ZM63.6005 213.73C63.6005 214.421 63.7218 215.074 63.9645 215.69C64.2258 216.288 64.5711 216.82 65.0005 217.286C65.4485 217.734 65.9618 218.098 66.5405 218.378C67.1378 218.64 67.7818 218.77 68.4725 218.77C69.1445 218.77 69.7791 218.649 70.3765 218.406C70.9925 218.164 71.5338 217.828 72.0005 217.398C72.4671 216.95 72.8218 216.418 73.0645 215.802C73.3258 215.186 73.4471 214.496 73.4285 213.73C73.4285 213.04 73.3165 212.396 73.0925 211.798C72.8685 211.182 72.5418 210.65 72.1125 210.202C71.6831 209.736 71.1605 209.372 70.5445 209.11C69.9285 208.83 69.2378 208.69 68.4725 208.69C67.7818 208.69 67.1378 208.83 66.5405 209.11C65.9618 209.372 65.4485 209.736 65.0005 210.202C64.5711 210.65 64.2258 211.182 63.9645 211.798C63.7218 212.396 63.6005 213.04 63.6005 213.73ZM63.2645 223.082C63.8058 223.81 64.5058 224.389 65.3645 224.818C66.2418 225.266 67.2125 225.49 68.2765 225.49C69.2098 225.49 70.0031 225.35 70.6565 225.07C71.3098 224.809 71.8325 224.445 72.2245 223.978C72.6351 223.512 72.9245 222.961 73.0925 222.326C73.2791 221.71 73.3725 221.048 73.3725 220.338V217.986H73.3165C72.7191 218.882 71.9911 219.517 71.1325 219.89C70.2738 220.264 69.3685 220.45 68.4165 220.45C67.4645 220.45 66.5685 220.282 65.7285 219.946C64.9071 219.61 64.1885 219.153 63.5725 218.574C62.9565 217.977 62.4711 217.268 62.1165 216.446C61.7618 215.625 61.5845 214.738 61.5845 213.786C61.5845 212.834 61.7525 211.948 62.0885 211.126C62.4245 210.305 62.8818 209.586 63.4605 208.97C64.0578 208.354 64.7578 207.878 65.5605 207.542C66.3818 207.188 67.2778 207.01 68.2485 207.01C68.6405 207.01 69.0511 207.048 69.4805 207.122C69.9285 207.197 70.3671 207.328 70.7965 207.514C71.2445 207.701 71.6831 207.962 72.1125 208.298C72.5418 208.616 72.9431 209.026 73.3165 209.53H73.3725V207.346H75.2205V220.338C75.2205 221.048 75.1271 221.804 74.9405 222.606C74.7725 223.409 74.4271 224.146 73.9045 224.818C73.4005 225.49 72.6911 226.05 71.7765 226.498C70.8618 226.946 69.6671 227.17 68.1925 227.17C66.8858 227.17 65.7191 226.956 64.6925 226.526C63.6658 226.097 62.7325 225.434 61.8925 224.538L63.2645 223.082ZM80.9417 202.306C80.9417 202.698 80.8017 203.025 80.5217 203.286C80.2417 203.529 79.9337 203.65 79.5977 203.65C79.2617 203.65 78.9537 203.529 78.6737 203.286C78.3937 203.025 78.2537 202.698 78.2537 202.306C78.2537 201.914 78.3937 201.597 78.6737 201.354C78.9537 201.093 79.2617 200.962 79.5977 200.962C79.9337 200.962 80.2417 201.093 80.5217 201.354C80.8017 201.597 80.9417 201.914 80.9417 202.306ZM80.5217 220.45H78.6737V207.346H80.5217V220.45ZM90.6362 209.026H86.8562V216.754C86.8562 217.24 86.9029 217.641 86.9962 217.958C87.0896 218.257 87.2202 218.49 87.3882 218.658C87.5562 218.826 87.7522 218.948 87.9762 219.022C88.2189 219.078 88.4802 219.106 88.7602 219.106C89.0776 219.106 89.4042 219.06 89.7402 218.966C90.0762 218.873 90.3842 218.752 90.6642 218.602L90.7482 220.31C90.0576 220.628 89.2269 220.786 88.2562 220.786C87.9016 220.786 87.5282 220.74 87.1362 220.646C86.7629 220.553 86.4176 220.376 86.1002 220.114C85.7829 219.853 85.5216 219.498 85.3162 219.05C85.1109 218.602 85.0082 218.014 85.0082 217.286V209.026H82.2362V207.346H85.0082V203.65H86.8562V207.346H90.6362V209.026ZM99.4851 213.926C99.0184 213.926 98.4304 213.954 97.7211 214.01C97.0304 214.048 96.3584 214.16 95.7051 214.346C95.0704 214.514 94.5198 214.785 94.0531 215.158C93.6051 215.532 93.3811 216.045 93.3811 216.698C93.3811 217.128 93.4651 217.501 93.6331 217.818C93.8198 218.117 94.0624 218.369 94.3611 218.574C94.6598 218.761 94.9864 218.901 95.3411 218.994C95.7144 219.069 96.0878 219.106 96.4611 219.106C97.1331 219.106 97.7118 218.994 98.1971 218.77C98.7011 218.546 99.1211 218.248 99.4571 217.874C99.7931 217.482 100.036 217.034 100.185 216.53C100.353 216.008 100.437 215.457 100.437 214.878V213.926H99.4851ZM100.437 212.414V212.078C100.437 209.82 99.3171 208.69 97.0771 208.69C95.5464 208.69 94.2118 209.204 93.0731 210.23L91.9531 208.914C93.1851 207.645 95.0331 207.01 97.4971 207.01C98.1318 207.01 98.7384 207.104 99.3171 207.29C99.9144 207.477 100.428 207.766 100.857 208.158C101.286 208.532 101.632 209.008 101.893 209.586C102.154 210.165 102.285 210.856 102.285 211.658V217.51C102.285 218.014 102.304 218.546 102.341 219.106C102.397 219.648 102.453 220.096 102.509 220.45H100.717C100.661 220.133 100.614 219.788 100.577 219.414C100.558 219.041 100.549 218.677 100.549 218.322H100.493C99.9518 219.2 99.3078 219.834 98.5611 220.226C97.8331 220.6 96.9371 220.786 95.8731 220.786C95.2944 220.786 94.7344 220.702 94.1931 220.534C93.6518 220.385 93.1664 220.152 92.7371 219.834C92.3264 219.498 91.9904 219.097 91.7291 218.63C91.4864 218.145 91.3651 217.585 91.3651 216.95C91.3651 215.886 91.6358 215.056 92.1771 214.458C92.7371 213.842 93.4278 213.385 94.2491 213.086C95.0891 212.788 95.9758 212.601 96.9091 212.526C97.8611 212.452 98.7291 212.414 99.5131 212.414H100.437ZM107.705 220.45H105.857V199.282H107.705V220.45ZM121.235 212.89C121.235 211.64 120.862 210.632 120.115 209.866C119.369 209.082 118.323 208.69 116.979 208.69C116.382 208.69 115.803 208.812 115.243 209.054C114.683 209.278 114.189 209.586 113.759 209.978C113.349 210.37 113.013 210.818 112.751 211.322C112.509 211.826 112.387 212.349 112.387 212.89H121.235ZM112.331 214.402C112.387 215.056 112.546 215.672 112.807 216.25C113.069 216.829 113.414 217.333 113.843 217.762C114.273 218.173 114.767 218.5 115.327 218.742C115.887 218.985 116.494 219.106 117.147 219.106C118.137 219.106 118.986 218.882 119.695 218.434C120.423 217.968 120.974 217.436 121.347 216.838L122.775 218.014C121.991 219.004 121.123 219.713 120.171 220.142C119.238 220.572 118.23 220.786 117.147 220.786C116.177 220.786 115.271 220.618 114.431 220.282C113.61 219.928 112.901 219.442 112.303 218.826C111.706 218.21 111.23 217.482 110.875 216.642C110.539 215.802 110.371 214.888 110.371 213.898C110.371 212.909 110.539 211.994 110.875 211.154C111.211 210.314 111.678 209.586 112.275 208.97C112.873 208.354 113.573 207.878 114.375 207.542C115.178 207.188 116.046 207.01 116.979 207.01C117.969 207.01 118.855 207.188 119.639 207.542C120.423 207.897 121.077 208.373 121.599 208.97C122.141 209.549 122.551 210.24 122.831 211.042C123.111 211.826 123.251 212.666 123.251 213.562V214.402H112.331Z" fill="black"/>
<path d="M10.0535 36.4487L1.99992 39.7278L17.7658 78.4498L16.8876 53.3392L10.0535 36.4487Z" fill="white" stroke="#0078BF" stroke-width="2"/>
<path fill-rule="evenodd" clip-rule="evenodd" d="M137.824 14.226H19.4737V99.4077H137.824V14.226ZM17.0081 11.7922V101.842H140.29V11.7922H17.0081Z" fill="#0078BF"/>
<path fill-rule="evenodd" clip-rule="evenodd" d="M137.824 102.18H19.4737V144.384H137.824V102.18ZM17.0081 99.6975V146.866H140.29V99.6975H17.0081Z" fill="#0078BF"/>
<path fill-rule="evenodd" clip-rule="evenodd" d="M44.3445 168.092C49.7915 168.092 54.2071 163.868 54.2071 158.658C54.2071 153.448 49.7915 149.225 44.3445 149.225C38.8976 149.225 34.482 153.448 34.482 158.658C34.482 163.868 38.8976 168.092 44.3445 168.092ZM44.3445 170.451C51.1532 170.451 56.6727 165.171 56.6727 158.658C56.6727 152.146 51.1532 146.866 44.3445 146.866C37.5359 146.866 32.0164 152.146 32.0164 158.658C32.0164 165.171 37.5359 170.451 44.3445 170.451Z" fill="#0078BF"/>
<path fill-rule="evenodd" clip-rule="evenodd" d="M115.097 168.092C120.544 168.092 124.96 163.868 124.96 158.658C124.96 153.448 120.544 149.225 115.097 149.225C109.651 149.225 105.235 153.448 105.235 158.658C105.235 163.868 109.651 168.092 115.097 168.092ZM115.097 170.451C121.906 170.451 127.426 165.171 127.426 158.658C127.426 152.146 121.906 146.866 115.097 146.866C108.289 146.866 102.769 152.146 102.769 158.658C102.769 165.171 108.289 170.451 115.097 170.451Z" fill="#0078BF"/>
<rect x="18.0801" y="4.28809" width="121.138" height="4.28806" stroke="#0078BF"/>
<rect x="18.0801" y="109.346" width="121.138" height="9.64814" stroke="#0078BF" stroke-width="2"/>
<rect width="38.5925" height="16.0802" transform="matrix(1 0 0 -1 24.5122 36.4487)" fill="#F15060"/>
<rect x="140.29" y="77.1851" width="35.3765" height="5.36008" fill="#F15060"/>
<rect x="18.0801" y="118.994" width="121.138" height="7.50411" stroke="#0078BF" stroke-width="2"/>
<path d="M493.712 208.688H494.748C495.327 208.688 495.877 208.623 496.4 208.492C496.941 208.361 497.408 208.156 497.8 207.876C498.192 207.577 498.5 207.195 498.724 206.728C498.967 206.261 499.088 205.701 499.088 205.048C499.088 203.984 498.761 203.163 498.108 202.584C497.473 201.987 496.577 201.688 495.42 201.688C494.58 201.688 493.843 201.875 493.208 202.248C492.573 202.621 492.051 203.163 491.64 203.872L489.876 202.976C490.473 201.912 491.229 201.128 492.144 200.624C493.077 200.101 494.151 199.84 495.364 199.84C496.148 199.84 496.885 199.952 497.576 200.176C498.267 200.4 498.873 200.736 499.396 201.184C499.919 201.613 500.329 202.155 500.628 202.808C500.945 203.443 501.104 204.171 501.104 204.992C501.104 205.533 501.011 206.047 500.824 206.532C500.656 207.017 500.413 207.456 500.096 207.848C499.797 208.24 499.443 208.585 499.032 208.884C498.621 209.164 498.192 209.379 497.744 209.528L497.828 209.584C498.388 209.696 498.901 209.911 499.368 210.228C499.835 210.527 500.236 210.9 500.572 211.348C500.908 211.796 501.169 212.3 501.356 212.86C501.543 213.42 501.636 214.008 501.636 214.624C501.636 215.539 501.468 216.351 501.132 217.06C500.796 217.769 500.339 218.367 499.76 218.852C499.181 219.337 498.509 219.711 497.744 219.972C496.979 220.215 496.167 220.336 495.308 220.336C493.852 220.336 492.583 220.019 491.5 219.384C490.417 218.749 489.605 217.732 489.064 216.332L491.192 215.688C491.528 216.64 492.023 217.349 492.676 217.816C493.348 218.264 494.281 218.488 495.476 218.488C496.036 218.488 496.568 218.395 497.072 218.208C497.576 218.021 498.015 217.76 498.388 217.424C498.78 217.069 499.079 216.649 499.284 216.164C499.508 215.679 499.62 215.147 499.62 214.568C499.62 213.821 499.48 213.196 499.2 212.692C498.92 212.169 498.547 211.749 498.08 211.432C497.613 211.115 497.072 210.891 496.456 210.76C495.859 210.611 495.233 210.536 494.58 210.536H493.712V208.688ZM505.575 213.448C505.575 214.176 505.687 214.857 505.911 215.492C506.153 216.127 506.489 216.677 506.919 217.144C507.348 217.611 507.861 217.984 508.459 218.264C509.075 218.525 509.765 218.656 510.531 218.656C511.277 218.656 511.968 218.525 512.603 218.264C513.256 217.984 513.816 217.611 514.283 217.144C514.749 216.677 515.113 216.127 515.375 215.492C515.636 214.857 515.767 214.176 515.767 213.448C515.767 212.72 515.636 212.039 515.375 211.404C515.113 210.769 514.749 210.219 514.283 209.752C513.816 209.285 513.256 208.921 512.603 208.66C511.968 208.38 511.277 208.24 510.531 208.24C509.765 208.24 509.075 208.38 508.459 208.66C507.861 208.921 507.348 209.285 506.919 209.752C506.489 210.219 506.153 210.769 505.911 211.404C505.687 212.039 505.575 212.72 505.575 213.448ZM517.531 220H515.683V217.816H515.627C515.328 218.264 514.973 218.647 514.563 218.964C514.152 219.281 513.723 219.543 513.275 219.748C512.827 219.953 512.36 220.103 511.875 220.196C511.408 220.289 510.96 220.336 510.531 220.336C509.504 220.336 508.561 220.168 507.703 219.832C506.863 219.477 506.135 218.992 505.519 218.376C504.903 217.76 504.417 217.032 504.063 216.192C503.727 215.352 503.559 214.437 503.559 213.448C503.559 212.459 503.727 211.544 504.063 210.704C504.417 209.864 504.903 209.136 505.519 208.52C506.135 207.904 506.863 207.428 507.703 207.092C508.561 206.737 509.504 206.56 510.531 206.56C510.96 206.56 511.408 206.607 511.875 206.7C512.36 206.793 512.827 206.943 513.275 207.148C513.723 207.353 514.152 207.615 514.563 207.932C514.973 208.249 515.328 208.632 515.627 209.08H515.683V198.832H517.531V220ZM537.569 216.304L544.261 200.176H547.341V220H545.325V202.864H545.269L538.101 220H537.037L529.869 202.864H529.813V220H527.797V200.176H530.877L537.569 216.304ZM558.363 213.476C557.896 213.476 557.308 213.504 556.599 213.56C555.908 213.597 555.236 213.709 554.583 213.896C553.948 214.064 553.398 214.335 552.931 214.708C552.483 215.081 552.259 215.595 552.259 216.248C552.259 216.677 552.343 217.051 552.511 217.368C552.698 217.667 552.94 217.919 553.239 218.124C553.538 218.311 553.864 218.451 554.219 218.544C554.592 218.619 554.966 218.656 555.339 218.656C556.011 218.656 556.59 218.544 557.075 218.32C557.579 218.096 557.999 217.797 558.335 217.424C558.671 217.032 558.914 216.584 559.063 216.08C559.231 215.557 559.315 215.007 559.315 214.428V213.476H558.363ZM559.315 211.964V211.628C559.315 209.369 558.195 208.24 555.955 208.24C554.424 208.24 553.09 208.753 551.951 209.78L550.831 208.464C552.063 207.195 553.911 206.56 556.375 206.56C557.01 206.56 557.616 206.653 558.195 206.84C558.792 207.027 559.306 207.316 559.735 207.708C560.164 208.081 560.51 208.557 560.771 209.136C561.032 209.715 561.163 210.405 561.163 211.208V217.06C561.163 217.564 561.182 218.096 561.219 218.656C561.275 219.197 561.331 219.645 561.387 220H559.595C559.539 219.683 559.492 219.337 559.455 218.964C559.436 218.591 559.427 218.227 559.427 217.872H559.371C558.83 218.749 558.186 219.384 557.439 219.776C556.711 220.149 555.815 220.336 554.751 220.336C554.172 220.336 553.612 220.252 553.071 220.084C552.53 219.935 552.044 219.701 551.615 219.384C551.204 219.048 550.868 218.647 550.607 218.18C550.364 217.695 550.243 217.135 550.243 216.5C550.243 215.436 550.514 214.605 551.055 214.008C551.615 213.392 552.306 212.935 553.127 212.636C553.967 212.337 554.854 212.151 555.787 212.076C556.739 212.001 557.607 211.964 558.391 211.964H559.315ZM566.162 212.804L572.35 206.896H575.122L568.598 212.888L575.822 220H572.966L566.162 213.112V220H564.314V198.832H566.162V212.804ZM579.39 201.856C579.39 202.248 579.25 202.575 578.97 202.836C578.69 203.079 578.382 203.2 578.046 203.2C577.71 203.2 577.402 203.079 577.122 202.836C576.842 202.575 576.702 202.248 576.702 201.856C576.702 201.464 576.842 201.147 577.122 200.904C577.402 200.643 577.71 200.512 578.046 200.512C578.382 200.512 578.69 200.643 578.97 200.904C579.25 201.147 579.39 201.464 579.39 201.856ZM578.97 220H577.122V206.896H578.97V220ZM584.073 206.896C584.11 207.251 584.129 207.605 584.129 207.96C584.147 208.296 584.157 208.641 584.157 208.996H584.213C584.418 208.641 584.679 208.315 584.997 208.016C585.314 207.717 585.669 207.465 586.061 207.26C586.453 207.036 586.863 206.868 587.293 206.756C587.741 206.625 588.179 206.56 588.609 206.56C590.289 206.56 591.53 207.008 592.333 207.904C593.135 208.781 593.537 210.041 593.537 211.684V220H591.689V212.748C591.689 211.292 591.437 210.181 590.933 209.416C590.429 208.632 589.495 208.24 588.133 208.24C588.039 208.24 587.778 208.277 587.349 208.352C586.919 208.427 586.462 208.632 585.977 208.968C585.51 209.304 585.09 209.808 584.717 210.48C584.343 211.152 584.157 212.085 584.157 213.28V220H582.309V209.78C582.309 209.425 582.29 208.977 582.253 208.436C582.234 207.895 582.206 207.381 582.169 206.896H584.073ZM598.091 213.28C598.091 213.971 598.213 214.624 598.455 215.24C598.717 215.837 599.062 216.369 599.491 216.836C599.939 217.284 600.453 217.648 601.031 217.928C601.629 218.189 602.273 218.32 602.963 218.32C603.635 218.32 604.27 218.199 604.867 217.956C605.483 217.713 606.025 217.377 606.491 216.948C606.958 216.5 607.313 215.968 607.555 215.352C607.817 214.736 607.938 214.045 607.919 213.28C607.919 212.589 607.807 211.945 607.583 211.348C607.359 210.732 607.033 210.2 606.603 209.752C606.174 209.285 605.651 208.921 605.035 208.66C604.419 208.38 603.729 208.24 602.963 208.24C602.273 208.24 601.629 208.38 601.031 208.66C600.453 208.921 599.939 209.285 599.491 209.752C599.062 210.2 598.717 210.732 598.455 211.348C598.213 211.945 598.091 212.589 598.091 213.28ZM597.755 222.632C598.297 223.36 598.997 223.939 599.855 224.368C600.733 224.816 601.703 225.04 602.767 225.04C603.701 225.04 604.494 224.9 605.147 224.62C605.801 224.359 606.323 223.995 606.715 223.528C607.126 223.061 607.415 222.511 607.583 221.876C607.77 221.26 607.863 220.597 607.863 219.888V217.536H607.807C607.21 218.432 606.482 219.067 605.623 219.44C604.765 219.813 603.859 220 602.907 220C601.955 220 601.059 219.832 600.219 219.496C599.398 219.16 598.679 218.703 598.063 218.124C597.447 217.527 596.962 216.817 596.607 215.996C596.253 215.175 596.075 214.288 596.075 213.336C596.075 212.384 596.243 211.497 596.579 210.676C596.915 209.855 597.373 209.136 597.951 208.52C598.549 207.904 599.249 207.428 600.051 207.092C600.873 206.737 601.769 206.56 602.739 206.56C603.131 206.56 603.542 206.597 603.971 206.672C604.419 206.747 604.858 206.877 605.287 207.064C605.735 207.251 606.174 207.512 606.603 207.848C607.033 208.165 607.434 208.576 607.807 209.08H607.863V206.896H609.711V219.888C609.711 220.597 609.618 221.353 609.431 222.156C609.263 222.959 608.918 223.696 608.395 224.368C607.891 225.04 607.182 225.6 606.267 226.048C605.353 226.496 604.158 226.72 602.683 226.72C601.377 226.72 600.21 226.505 599.183 226.076C598.157 225.647 597.223 224.984 596.383 224.088L597.755 222.632Z" fill="black"/>
<path fill-rule="evenodd" clip-rule="evenodd" d="M608.663 14.2258H490.313V99.4075H608.663V14.2258ZM487.847 11.792V101.841H611.129V11.792H487.847Z" fill="#0078BF"/>
<path fill-rule="evenodd" clip-rule="evenodd" d="M608.663 102.18H490.313V144.383H608.663V102.18ZM487.847 99.6973V146.866H611.129V99.6973H487.847Z" fill="#0078BF"/>
<path fill-rule="evenodd" clip-rule="evenodd" d="M515.183 168.092C520.63 168.092 525.046 163.868 525.046 158.658C525.046 153.448 520.63 149.224 515.183 149.224C509.736 149.224 505.321 153.448 505.321 158.658C505.321 163.868 509.736 168.092 515.183 168.092ZM515.183 170.45C521.992 170.45 527.512 165.171 527.512 158.658C527.512 152.145 521.992 146.866 515.183 146.866C508.375 146.866 502.855 152.145 502.855 158.658C502.855 165.171 508.375 170.45 515.183 170.45Z" fill="#0078BF"/>
<path fill-rule="evenodd" clip-rule="evenodd" d="M585.936 168.092C591.383 168.092 595.799 163.868 595.799 158.658C595.799 153.448 591.383 149.224 585.936 149.224C580.489 149.224 576.074 153.448 576.074 158.658C576.074 163.868 580.489 168.092 585.936 168.092ZM585.936 170.45C592.745 170.45 598.265 165.171 598.265 158.658C598.265 152.145 592.745 146.866 585.936 146.866C579.128 146.866 573.608 152.145 573.608 158.658C573.608 165.171 579.128 170.45 585.936 170.45Z" fill="#0078BF"/>
<rect x="557.528" y="109.345" width="38.5925" height="9.64814" stroke="#0078BF" stroke-width="2"/>
<rect width="108.274" height="73.969" transform="matrix(1 0 0 -1 495.351 94.3369)" stroke="#0078BF" stroke-width="2"/>
<path d="M498.567 77.7209H518.935M578.968 77.7209H599.337" stroke="#0078BF" stroke-linecap="round"/>
<rect width="35.0335" height="33.1896" rx="2" transform="matrix(1 0 0 -1 526.054 85.761)" fill="#F15060" stroke="#F15060"/>
<path d="M563.853 50.7275L573.141 41.4398C573.456 41.1248 573.994 41.3479 573.994 41.7933V75.6197L565.697 83.9171M568.463 39.6643C568.463 39.6643 550.817 39.6643 538.227 39.6643C538.105 39.6643 537.988 39.7092 537.897 39.7906L529.741 47.0398" stroke="#F15060" stroke-linecap="round"/>
<rect x="557.528" y="118.993" width="38.5925" height="7.50411" stroke="#0078BF" stroke-width="2"/>
<path d="M477.068 452.258C476.191 450.97 474.912 450.326 473.232 450.326C472.709 450.326 472.196 450.401 471.692 450.55C471.188 450.681 470.731 450.895 470.32 451.194C469.928 451.474 469.611 451.847 469.368 452.314C469.125 452.762 469.004 453.294 469.004 453.91C469.004 454.806 469.256 455.506 469.76 456.01C470.264 456.495 470.889 456.897 471.636 457.214C472.383 457.531 473.195 457.821 474.072 458.082C474.968 458.325 475.789 458.661 476.536 459.09C477.283 459.501 477.908 460.051 478.412 460.742C478.916 461.433 479.168 462.375 479.168 463.57C479.168 464.466 478.972 465.278 478.58 466.006C478.207 466.715 477.703 467.313 477.068 467.798C476.452 468.283 475.752 468.657 474.968 468.918C474.203 469.179 473.428 469.31 472.644 469.31C471.431 469.31 470.273 469.086 469.172 468.638C468.089 468.171 467.165 467.415 466.4 466.37L468.22 465.054C468.649 465.782 469.247 466.37 470.012 466.818C470.777 467.247 471.683 467.462 472.728 467.462C473.232 467.462 473.736 467.387 474.24 467.238C474.744 467.07 475.192 466.837 475.584 466.538C475.995 466.221 476.331 465.838 476.592 465.39C476.853 464.942 476.984 464.429 476.984 463.85C476.984 463.159 476.835 462.59 476.536 462.142C476.256 461.675 475.873 461.293 475.388 460.994C474.921 460.677 474.38 460.415 473.764 460.21C473.167 460.005 472.541 459.799 471.888 459.594C471.253 459.389 470.628 459.155 470.012 458.894C469.415 458.633 468.873 458.306 468.388 457.914C467.921 457.503 467.539 456.999 467.24 456.402C466.96 455.786 466.82 455.021 466.82 454.106C466.82 453.154 466.997 452.323 467.352 451.614C467.725 450.905 468.211 450.317 468.808 449.85C469.424 449.383 470.115 449.038 470.88 448.814C471.645 448.59 472.429 448.478 473.232 448.478C474.352 448.478 475.369 448.655 476.284 449.01C477.199 449.365 478.048 449.99 478.832 450.886L477.068 452.258ZM490.919 468.806C490.881 468.451 490.853 468.106 490.835 467.77C490.835 467.415 490.835 467.061 490.835 466.706H490.779C490.573 467.061 490.312 467.387 489.995 467.686C489.677 467.985 489.323 468.246 488.931 468.47C488.539 468.675 488.119 468.834 487.671 468.946C487.241 469.077 486.812 469.142 486.383 469.142C484.703 469.142 483.461 468.703 482.659 467.826C481.856 466.93 481.455 465.661 481.455 464.018V455.702H483.303V462.954C483.303 463.682 483.359 464.326 483.471 464.886C483.583 465.446 483.769 465.922 484.031 466.314C484.311 466.687 484.675 466.977 485.123 467.182C485.589 467.369 486.168 467.462 486.859 467.462C486.952 467.462 487.213 467.425 487.643 467.35C488.072 467.275 488.52 467.07 488.987 466.734C489.472 466.398 489.901 465.894 490.275 465.222C490.648 464.55 490.835 463.617 490.835 462.422V455.702H492.683V465.922C492.683 466.277 492.692 466.725 492.711 467.266C492.748 467.807 492.785 468.321 492.823 468.806H490.919ZM507.849 462.254C507.849 461.526 507.728 460.845 507.485 460.21C507.261 459.575 506.935 459.025 506.505 458.558C506.076 458.091 505.553 457.727 504.937 457.466C504.34 457.186 503.659 457.046 502.893 457.046C502.128 457.046 501.428 457.186 500.793 457.466C500.159 457.727 499.608 458.091 499.141 458.558C498.675 459.025 498.311 459.575 498.049 460.21C497.788 460.845 497.657 461.526 497.657 462.254C497.657 462.982 497.788 463.663 498.049 464.298C498.311 464.933 498.675 465.483 499.141 465.95C499.608 466.417 500.159 466.79 500.793 467.07C501.428 467.331 502.128 467.462 502.893 467.462C503.659 467.462 504.34 467.331 504.937 467.07C505.553 466.79 506.076 466.417 506.505 465.95C506.935 465.483 507.261 464.933 507.485 464.298C507.728 463.663 507.849 462.982 507.849 462.254ZM495.893 447.638H497.741V457.886H497.797C498.096 457.438 498.451 457.055 498.861 456.738C499.272 456.421 499.701 456.159 500.149 455.954C500.597 455.749 501.055 455.599 501.521 455.506C502.007 455.413 502.464 455.366 502.893 455.366C503.92 455.366 504.853 455.543 505.693 455.898C506.552 456.234 507.289 456.71 507.905 457.326C508.521 457.942 508.997 458.67 509.333 459.51C509.688 460.35 509.865 461.265 509.865 462.254C509.865 463.243 509.688 464.158 509.333 464.998C508.997 465.838 508.521 466.566 507.905 467.182C507.289 467.798 506.552 468.283 505.693 468.638C504.853 468.974 503.92 469.142 502.893 469.142C502.464 469.142 502.007 469.095 501.521 469.002C501.055 468.909 500.597 468.759 500.149 468.554C499.701 468.349 499.272 468.087 498.861 467.77C498.451 467.453 498.096 467.07 497.797 466.622H497.741V468.806H495.893V447.638ZM514.158 468.806H512.31V447.638H514.158V468.806ZM520.185 450.662C520.185 451.054 520.045 451.381 519.765 451.642C519.485 451.885 519.177 452.006 518.841 452.006C518.505 452.006 518.197 451.885 517.917 451.642C517.637 451.381 517.497 451.054 517.497 450.662C517.497 450.27 517.637 449.953 517.917 449.71C518.197 449.449 518.505 449.318 518.841 449.318C519.177 449.318 519.485 449.449 519.765 449.71C520.045 449.953 520.185 450.27 520.185 450.662ZM519.765 468.806H517.917V455.702H519.765V468.806ZM523.104 458.614C523.104 458.129 523.085 457.643 523.048 457.158C523.029 456.673 523.001 456.187 522.964 455.702H524.952V457.69H525.008C525.456 456.925 526.072 456.346 526.856 455.954C527.658 455.562 528.452 455.366 529.236 455.366C529.59 455.366 529.964 455.403 530.356 455.478C530.766 455.553 531.158 455.693 531.532 455.898C531.905 456.085 532.25 456.355 532.568 456.71C532.904 457.065 533.184 457.522 533.408 458.082C533.781 457.242 534.369 456.579 535.172 456.094C535.993 455.609 536.842 455.366 537.72 455.366C539.4 455.366 540.641 455.814 541.444 456.71C542.246 457.587 542.648 458.847 542.648 460.49V468.806H540.8V461.162C540.8 459.837 540.566 458.819 540.1 458.11C539.633 457.401 538.765 457.046 537.496 457.046C536.805 457.046 536.226 457.186 535.76 457.466C535.293 457.727 534.91 458.082 534.612 458.53C534.332 458.978 534.126 459.491 533.996 460.07C533.865 460.63 533.8 461.218 533.8 461.834V468.806H531.952V461.162C531.952 459.837 531.718 458.819 531.252 458.11C530.785 457.401 529.917 457.046 528.648 457.046C528.536 457.046 528.274 457.083 527.864 457.158C527.472 457.233 527.061 457.438 526.632 457.774C526.202 458.11 525.81 458.614 525.456 459.286C525.12 459.958 524.952 460.891 524.952 462.086V468.806H523.104V458.614ZM553.275 462.282C552.809 462.282 552.221 462.31 551.511 462.366C550.821 462.403 550.149 462.515 549.495 462.702C548.861 462.87 548.31 463.141 547.843 463.514C547.395 463.887 547.171 464.401 547.171 465.054C547.171 465.483 547.255 465.857 547.423 466.174C547.61 466.473 547.853 466.725 548.151 466.93C548.45 467.117 548.777 467.257 549.131 467.35C549.505 467.425 549.878 467.462 550.251 467.462C550.923 467.462 551.502 467.35 551.987 467.126C552.491 466.902 552.911 466.603 553.247 466.23C553.583 465.838 553.826 465.39 553.975 464.886C554.143 464.363 554.227 463.813 554.227 463.234V462.282H553.275ZM554.227 460.77V460.434C554.227 458.175 553.107 457.046 550.867 457.046C549.337 457.046 548.002 457.559 546.863 458.586L545.743 457.27C546.975 456.001 548.823 455.366 551.287 455.366C551.922 455.366 552.529 455.459 553.107 455.646C553.705 455.833 554.218 456.122 554.647 456.514C555.077 456.887 555.422 457.363 555.683 457.942C555.945 458.521 556.075 459.211 556.075 460.014V465.866C556.075 466.37 556.094 466.902 556.131 467.462C556.187 468.003 556.243 468.451 556.299 468.806H554.507C554.451 468.489 554.405 468.143 554.367 467.77C554.349 467.397 554.339 467.033 554.339 466.678H554.283C553.742 467.555 553.098 468.19 552.351 468.582C551.623 468.955 550.727 469.142 549.663 469.142C549.085 469.142 548.525 469.058 547.983 468.89C547.442 468.741 546.957 468.507 546.527 468.19C546.117 467.854 545.781 467.453 545.519 466.986C545.277 466.501 545.155 465.941 545.155 465.306C545.155 464.242 545.426 463.411 545.967 462.814C546.527 462.198 547.218 461.741 548.039 461.442C548.879 461.143 549.766 460.957 550.699 460.882C551.651 460.807 552.519 460.77 553.303 460.77H554.227ZM568.215 457.046L560.543 467.126H568.495V468.806H557.855V467.462L565.527 457.382H558.247V455.702H568.215V457.046ZM572.717 450.662C572.717 451.054 572.577 451.381 572.297 451.642C572.017 451.885 571.709 452.006 571.373 452.006C571.037 452.006 570.729 451.885 570.449 451.642C570.169 451.381 570.029 451.054 570.029 450.662C570.029 450.27 570.169 449.953 570.449 449.71C570.729 449.449 571.037 449.318 571.373 449.318C571.709 449.318 572.017 449.449 572.297 449.71C572.577 449.953 572.717 450.27 572.717 450.662ZM572.297 468.806H570.449V455.702H572.297V468.806ZM586.863 462.254C586.863 461.526 586.742 460.845 586.499 460.21C586.275 459.575 585.949 459.025 585.519 458.558C585.09 458.091 584.567 457.727 583.951 457.466C583.354 457.186 582.673 457.046 581.907 457.046C581.142 457.046 580.451 457.186 579.835 457.466C579.238 457.727 578.725 458.091 578.295 458.558C577.885 459.025 577.558 459.575 577.315 460.21C577.091 460.845 576.979 461.526 576.979 462.254C576.979 462.982 577.091 463.663 577.315 464.298C577.558 464.933 577.885 465.483 578.295 465.95C578.725 466.417 579.238 466.79 579.835 467.07C580.451 467.331 581.142 467.462 581.907 467.462C582.673 467.462 583.354 467.331 583.951 467.07C584.567 466.79 585.09 466.417 585.519 465.95C585.949 465.483 586.275 464.933 586.499 464.298C586.742 463.663 586.863 462.982 586.863 462.254ZM588.879 462.254C588.879 463.243 588.702 464.158 588.347 464.998C588.011 465.838 587.535 466.566 586.919 467.182C586.303 467.798 585.566 468.283 584.707 468.638C583.867 468.974 582.934 469.142 581.907 469.142C580.899 469.142 579.966 468.974 579.107 468.638C578.267 468.283 577.539 467.798 576.923 467.182C576.307 466.566 575.822 465.838 575.467 464.998C575.131 464.158 574.963 463.243 574.963 462.254C574.963 461.265 575.131 460.35 575.467 459.51C575.822 458.67 576.307 457.942 576.923 457.326C577.539 456.71 578.267 456.234 579.107 455.898C579.966 455.543 580.899 455.366 581.907 455.366C582.934 455.366 583.867 455.543 584.707 455.898C585.566 456.234 586.303 456.71 586.919 457.326C587.535 457.942 588.011 458.67 588.347 459.51C588.702 460.35 588.879 461.265 588.879 462.254ZM592.877 455.702C592.914 456.057 592.933 456.411 592.933 456.766C592.952 457.102 592.961 457.447 592.961 457.802H593.017C593.222 457.447 593.484 457.121 593.801 456.822C594.118 456.523 594.473 456.271 594.865 456.066C595.257 455.842 595.668 455.674 596.097 455.562C596.545 455.431 596.984 455.366 597.413 455.366C599.093 455.366 600.334 455.814 601.137 456.71C601.94 457.587 602.341 458.847 602.341 460.49V468.806H600.493V461.554C600.493 460.098 600.241 458.987 599.737 458.222C599.233 457.438 598.3 457.046 596.937 457.046C596.844 457.046 596.582 457.083 596.153 457.158C595.724 457.233 595.266 457.438 594.781 457.774C594.314 458.11 593.894 458.614 593.521 459.286C593.148 459.958 592.961 460.891 592.961 462.086V468.806H591.113V458.586C591.113 458.231 591.094 457.783 591.057 457.242C591.038 456.701 591.01 456.187 590.973 455.702H592.877ZM615.743 461.246C615.743 459.995 615.37 458.987 614.623 458.222C613.877 457.438 612.831 457.046 611.487 457.046C610.89 457.046 610.311 457.167 609.751 457.41C609.191 457.634 608.697 457.942 608.267 458.334C607.857 458.726 607.521 459.174 607.259 459.678C607.017 460.182 606.895 460.705 606.895 461.246H615.743ZM606.839 462.758C606.895 463.411 607.054 464.027 607.315 464.606C607.577 465.185 607.922 465.689 608.351 466.118C608.781 466.529 609.275 466.855 609.835 467.098C610.395 467.341 611.002 467.462 611.655 467.462C612.645 467.462 613.494 467.238 614.203 466.79C614.931 466.323 615.482 465.791 615.855 465.194L617.283 466.37C616.499 467.359 615.631 468.069 614.679 468.498C613.746 468.927 612.738 469.142 611.655 469.142C610.685 469.142 609.779 468.974 608.939 468.638C608.118 468.283 607.409 467.798 606.811 467.182C606.214 466.566 605.738 465.838 605.383 464.998C605.047 464.158 604.879 463.243 604.879 462.254C604.879 461.265 605.047 460.35 605.383 459.51C605.719 458.67 606.186 457.942 606.783 457.326C607.381 456.71 608.081 456.234 608.883 455.898C609.686 455.543 610.554 455.366 611.487 455.366C612.477 455.366 613.363 455.543 614.147 455.898C614.931 456.253 615.585 456.729 616.107 457.326C616.649 457.905 617.059 458.595 617.339 459.398C617.619 460.182 617.759 461.022 617.759 461.918V462.758H606.839Z" fill="black"/>
<path d="M585.85 312.619H514.594C514.594 312.619 523.815 338.417 514.594 362.672C505.372 386.928 514.594 412.725 514.594 412.725H585.85C585.85 412.725 576.908 391.414 585.85 362.672C594.792 333.93 585.85 312.619 585.85 312.619Z" stroke="#0078BF" stroke-width="3"/>
<path d="M527.022 276.732C527.022 276.732 542.604 294.676 527.022 315.925C511.439 337.174 527.022 363.144 527.022 363.144" stroke="#F15060" stroke-width="4" stroke-linecap="round"/>
<path d="M541.031 276.732C541.031 276.732 556.613 294.676 541.031 315.925C525.448 337.174 541.031 363.144 541.031 363.144" stroke="#F15060" stroke-width="4" stroke-linecap="round"/>
<path d="M555.196 276.732C555.196 276.732 570.779 294.676 555.196 315.925C539.614 337.174 555.196 363.144 555.196 363.144" stroke="#F15060" stroke-width="4" stroke-linecap="round"/>
<path d="M538.827 408.003H578.491M570.936 316.869H582.741M558.187 357.478H584.63" stroke="#0078BF" stroke-width="2" stroke-linecap="round"/>
<path d="M268.704 209.39H272.288C273.184 209.39 273.94 209.297 274.556 209.11C275.191 208.924 275.695 208.681 276.068 208.382C276.441 208.065 276.712 207.701 276.88 207.29C277.048 206.861 277.132 206.404 277.132 205.918C277.132 205.452 277.048 205.013 276.88 204.602C276.712 204.173 276.441 203.8 276.068 203.482C275.695 203.165 275.191 202.922 274.556 202.754C273.94 202.568 273.184 202.474 272.288 202.474H268.704V209.39ZM268.704 220.45H266.688V200.626H272.792C274.808 200.626 276.395 201.065 277.552 201.942C278.728 202.82 279.316 204.145 279.316 205.918C279.316 207.3 278.877 208.466 278 209.418C277.141 210.352 275.891 210.893 274.248 211.042L279.96 220.45H277.496L272.064 211.238H268.704V220.45ZM284.182 202.306C284.182 202.698 284.042 203.025 283.762 203.286C283.482 203.529 283.174 203.65 282.838 203.65C282.502 203.65 282.194 203.529 281.914 203.286C281.634 203.025 281.494 202.698 281.494 202.306C281.494 201.914 281.634 201.597 281.914 201.354C282.194 201.093 282.502 200.962 282.838 200.962C283.174 200.962 283.482 201.093 283.762 201.354C284.042 201.597 284.182 201.914 284.182 202.306ZM283.762 220.45H281.914V207.346H283.762V220.45ZM294.044 210.454C293.764 209.913 293.391 209.484 292.924 209.166C292.458 208.849 291.888 208.69 291.216 208.69C290.899 208.69 290.572 208.728 290.236 208.802C289.919 208.877 289.63 208.998 289.368 209.166C289.107 209.316 288.892 209.512 288.724 209.754C288.575 209.997 288.5 210.296 288.5 210.65C288.5 211.266 288.715 211.714 289.144 211.994C289.574 212.274 290.218 212.517 291.076 212.722L292.952 213.17C293.867 213.376 294.623 213.796 295.22 214.43C295.836 215.046 296.144 215.821 296.144 216.754C296.144 217.464 295.995 218.08 295.696 218.602C295.416 219.106 295.034 219.526 294.548 219.862C294.082 220.18 293.54 220.413 292.924 220.562C292.308 220.712 291.683 220.786 291.048 220.786C290.04 220.786 289.098 220.6 288.22 220.226C287.362 219.834 286.624 219.172 286.008 218.238L287.604 217.146C287.978 217.744 288.444 218.22 289.004 218.574C289.583 218.929 290.264 219.106 291.048 219.106C291.422 219.106 291.795 219.069 292.168 218.994C292.542 218.901 292.868 218.77 293.148 218.602C293.447 218.416 293.68 218.182 293.848 217.902C294.035 217.622 294.128 217.296 294.128 216.922C294.128 216.269 293.886 215.802 293.4 215.522C292.915 215.224 292.327 214.99 291.636 214.822L289.844 214.402C289.62 214.346 289.312 214.253 288.92 214.122C288.547 213.992 288.174 213.796 287.8 213.534C287.446 213.273 287.138 212.937 286.876 212.526C286.615 212.097 286.484 211.574 286.484 210.958C286.484 210.286 286.615 209.698 286.876 209.194C287.156 208.69 287.52 208.28 287.968 207.962C288.435 207.645 288.958 207.412 289.536 207.262C290.115 207.094 290.712 207.01 291.328 207.01C292.243 207.01 293.092 207.188 293.876 207.542C294.66 207.897 295.267 208.504 295.696 209.362L294.044 210.454ZM309.13 213.898C309.13 213.17 309.009 212.489 308.766 211.854C308.542 211.22 308.215 210.669 307.786 210.202C307.357 209.736 306.834 209.372 306.218 209.11C305.621 208.83 304.939 208.69 304.174 208.69C303.409 208.69 302.718 208.83 302.102 209.11C301.505 209.372 300.991 209.736 300.562 210.202C300.151 210.669 299.825 211.22 299.582 211.854C299.358 212.489 299.246 213.17 299.246 213.898C299.246 214.626 299.358 215.308 299.582 215.942C299.825 216.577 300.151 217.128 300.562 217.594C300.991 218.061 301.505 218.434 302.102 218.714C302.718 218.976 303.409 219.106 304.174 219.106C304.939 219.106 305.621 218.976 306.218 218.714C306.834 218.434 307.357 218.061 307.786 217.594C308.215 217.128 308.542 216.577 308.766 215.942C309.009 215.308 309.13 214.626 309.13 213.898ZM311.146 213.898C311.146 214.888 310.969 215.802 310.614 216.642C310.278 217.482 309.802 218.21 309.186 218.826C308.57 219.442 307.833 219.928 306.974 220.282C306.134 220.618 305.201 220.786 304.174 220.786C303.166 220.786 302.233 220.618 301.374 220.282C300.534 219.928 299.806 219.442 299.19 218.826C298.574 218.21 298.089 217.482 297.734 216.642C297.398 215.802 297.23 214.888 297.23 213.898C297.23 212.909 297.398 211.994 297.734 211.154C298.089 210.314 298.574 209.586 299.19 208.97C299.806 208.354 300.534 207.878 301.374 207.542C302.233 207.188 303.166 207.01 304.174 207.01C305.201 207.01 306.134 207.188 306.974 207.542C307.833 207.878 308.57 208.354 309.186 208.97C309.802 209.586 310.278 210.314 310.614 211.154C310.969 211.994 311.146 212.909 311.146 213.898ZM314.724 213.73C314.724 214.421 314.845 215.074 315.088 215.69C315.349 216.288 315.694 216.82 316.124 217.286C316.572 217.734 317.085 218.098 317.664 218.378C318.261 218.64 318.905 218.77 319.596 218.77C320.268 218.77 320.902 218.649 321.5 218.406C322.116 218.164 322.657 217.828 323.124 217.398C323.59 216.95 323.945 216.418 324.188 215.802C324.449 215.186 324.57 214.496 324.552 213.73C324.552 213.04 324.44 212.396 324.216 211.798C323.992 211.182 323.665 210.65 323.236 210.202C322.806 209.736 322.284 209.372 321.668 209.11C321.052 208.83 320.361 208.69 319.596 208.69C318.905 208.69 318.261 208.83 317.664 209.11C317.085 209.372 316.572 209.736 316.124 210.202C315.694 210.65 315.349 211.182 315.088 211.798C314.845 212.396 314.724 213.04 314.724 213.73ZM314.388 223.082C314.929 223.81 315.629 224.389 316.488 224.818C317.365 225.266 318.336 225.49 319.4 225.49C320.333 225.49 321.126 225.35 321.78 225.07C322.433 224.809 322.956 224.445 323.348 223.978C323.758 223.512 324.048 222.961 324.216 222.326C324.402 221.71 324.496 221.048 324.496 220.338V217.986H324.44C323.842 218.882 323.114 219.517 322.256 219.89C321.397 220.264 320.492 220.45 319.54 220.45C318.588 220.45 317.692 220.282 316.852 219.946C316.03 219.61 315.312 219.153 314.696 218.574C314.08 217.977 313.594 217.268 313.24 216.446C312.885 215.625 312.708 214.738 312.708 213.786C312.708 212.834 312.876 211.948 313.212 211.126C313.548 210.305 314.005 209.586 314.584 208.97C315.181 208.354 315.881 207.878 316.684 207.542C317.505 207.188 318.401 207.01 319.372 207.01C319.764 207.01 320.174 207.048 320.604 207.122C321.052 207.197 321.49 207.328 321.92 207.514C322.368 207.701 322.806 207.962 323.236 208.298C323.665 208.616 324.066 209.026 324.44 209.53H324.496V207.346H326.344V220.338C326.344 221.048 326.25 221.804 326.064 222.606C325.896 223.409 325.55 224.146 325.028 224.818C324.524 225.49 323.814 226.05 322.9 226.498C321.985 226.946 320.79 227.17 319.316 227.17C318.009 227.17 316.842 226.956 315.816 226.526C314.789 226.097 313.856 225.434 313.016 224.538L314.388 223.082ZM329.573 211.434C329.573 210.856 329.554 210.268 329.517 209.67C329.498 209.073 329.48 208.298 329.461 207.346H331.281V209.782H331.337C331.468 209.428 331.654 209.092 331.897 208.774C332.14 208.438 332.429 208.14 332.765 207.878C333.12 207.617 333.521 207.412 333.969 207.262C334.436 207.094 334.958 207.01 335.537 207.01C336.06 207.01 336.517 207.066 336.909 207.178L336.545 208.998C336.302 208.905 335.948 208.858 335.481 208.858C334.772 208.858 334.165 208.998 333.661 209.278C333.157 209.54 332.737 209.885 332.401 210.314C332.065 210.725 331.813 211.173 331.645 211.658C331.496 212.144 331.421 212.61 331.421 213.058V220.45H329.573V211.434ZM345.002 213.926C344.535 213.926 343.947 213.954 343.238 214.01C342.547 214.048 341.875 214.16 341.222 214.346C340.587 214.514 340.036 214.785 339.57 215.158C339.122 215.532 338.898 216.045 338.898 216.698C338.898 217.128 338.982 217.501 339.15 217.818C339.336 218.117 339.579 218.369 339.878 218.574C340.176 218.761 340.503 218.901 340.858 218.994C341.231 219.069 341.604 219.106 341.978 219.106C342.65 219.106 343.228 218.994 343.714 218.77C344.218 218.546 344.638 218.248 344.974 217.874C345.31 217.482 345.552 217.034 345.702 216.53C345.87 216.008 345.954 215.457 345.954 214.878V213.926H345.002ZM345.954 212.414V212.078C345.954 209.82 344.834 208.69 342.594 208.69C341.063 208.69 339.728 209.204 338.59 210.23L337.47 208.914C338.702 207.645 340.55 207.01 343.014 207.01C343.648 207.01 344.255 207.104 344.834 207.29C345.431 207.477 345.944 207.766 346.374 208.158C346.803 208.532 347.148 209.008 347.41 209.586C347.671 210.165 347.802 210.856 347.802 211.658V217.51C347.802 218.014 347.82 218.546 347.858 219.106C347.914 219.648 347.97 220.096 348.026 220.45H346.234C346.178 220.133 346.131 219.788 346.094 219.414C346.075 219.041 346.066 218.677 346.066 218.322H346.01C345.468 219.2 344.824 219.834 344.078 220.226C343.35 220.6 342.454 220.786 341.39 220.786C340.811 220.786 340.251 220.702 339.71 220.534C339.168 220.385 338.683 220.152 338.254 219.834C337.843 219.498 337.507 219.097 337.246 218.63C337.003 218.145 336.882 217.585 336.882 216.95C336.882 215.886 337.152 215.056 337.694 214.458C338.254 213.842 338.944 213.385 339.766 213.086C340.606 212.788 341.492 212.601 342.426 212.526C343.378 212.452 344.246 212.414 345.03 212.414H345.954ZM362.909 213.898C362.909 213.17 362.788 212.489 362.545 211.854C362.321 211.22 361.995 210.669 361.565 210.202C361.136 209.736 360.613 209.372 359.997 209.11C359.4 208.83 358.719 208.69 357.953 208.69C357.188 208.69 356.488 208.83 355.853 209.11C355.219 209.372 354.668 209.736 354.201 210.202C353.735 210.669 353.371 211.22 353.109 211.854C352.848 212.489 352.717 213.17 352.717 213.898C352.717 214.626 352.848 215.308 353.109 215.942C353.371 216.577 353.735 217.128 354.201 217.594C354.668 218.061 355.219 218.434 355.853 218.714C356.488 218.976 357.188 219.106 357.953 219.106C358.719 219.106 359.4 218.976 359.997 218.714C360.613 218.434 361.136 218.061 361.565 217.594C361.995 217.128 362.321 216.577 362.545 215.942C362.788 215.308 362.909 214.626 362.909 213.898ZM350.953 207.346H352.801V209.53H352.857C353.156 209.082 353.511 208.7 353.921 208.382C354.332 208.065 354.761 207.804 355.209 207.598C355.657 207.393 356.115 207.244 356.581 207.15C357.067 207.057 357.524 207.01 357.953 207.01C358.98 207.01 359.913 207.188 360.753 207.542C361.612 207.878 362.349 208.354 362.965 208.97C363.581 209.586 364.057 210.314 364.393 211.154C364.748 211.994 364.925 212.909 364.925 213.898C364.925 214.888 364.748 215.802 364.393 216.642C364.057 217.482 363.581 218.21 362.965 218.826C362.349 219.442 361.612 219.928 360.753 220.282C359.913 220.618 358.98 220.786 357.953 220.786C357.524 220.786 357.067 220.74 356.581 220.646C356.115 220.553 355.657 220.404 355.209 220.198C354.761 219.993 354.332 219.732 353.921 219.414C353.511 219.097 353.156 218.714 352.857 218.266H352.801V228.514H350.953V207.346ZM366.951 199.282H368.799V209.446H368.855C369.06 209.092 369.321 208.765 369.639 208.466C369.956 208.168 370.311 207.916 370.703 207.71C371.095 207.486 371.505 207.318 371.935 207.206C372.383 207.076 372.821 207.01 373.251 207.01C374.931 207.01 376.172 207.458 376.975 208.354C377.777 209.232 378.179 210.492 378.179 212.134V220.45H376.331V213.198C376.331 211.742 376.079 210.632 375.575 209.866C375.071 209.082 374.137 208.69 372.775 208.69C372.681 208.69 372.42 208.728 371.991 208.802C371.561 208.877 371.104 209.082 370.619 209.418C370.152 209.754 369.732 210.258 369.359 210.93C368.985 211.602 368.799 212.536 368.799 213.73V220.45H366.951V199.282Z" fill="black"/>
<path fill-rule="evenodd" clip-rule="evenodd" d="M382.014 14.226H263.663V99.4077H382.014V14.226ZM261.198 11.7922V101.842H384.479V11.7922H261.198Z" fill="#0078BF"/>
<path fill-rule="evenodd" clip-rule="evenodd" d="M382.014 102.18H263.663V144.384H382.014V102.18ZM261.198 99.6975V146.866H384.479V99.6975H261.198Z" fill="#0078BF"/>
<rect x="263.14" y="101.758" width="119.496" height="42.9439" fill="white"/>
<rect x="263.14" y="14.0034" width="118.562" height="84.9542" fill="white"/>
<path fill-rule="evenodd" clip-rule="evenodd" d="M369.176 2.41203H276.501V7.2361H369.176V2.41203ZM274.062 0V9.64814H371.615V0H274.062Z" fill="#0078BF"/>
<path fill-rule="evenodd" clip-rule="evenodd" d="M406.699 87.9053H384.772V92.1933H406.699V87.9053ZM382.335 85.7612V94.3374H409.136V85.7612H382.335Z" fill="#0078BF"/>
<path fill-rule="evenodd" clip-rule="evenodd" d="M260.763 87.9882H239.376V92.1892H260.763V87.9882ZM237 85.8877V94.2898H263.14V85.8877H237Z" fill="#0078BF"/>
<path fill-rule="evenodd" clip-rule="evenodd" d="M288.534 168.092C293.981 168.092 298.397 163.868 298.397 158.658C298.397 153.448 293.981 149.225 288.534 149.225C283.087 149.225 278.671 153.448 278.671 158.658C278.671 163.868 283.087 168.092 288.534 168.092ZM288.534 170.451C295.343 170.451 300.862 165.171 300.862 158.658C300.862 152.146 295.343 146.866 288.534 146.866C281.725 146.866 276.206 152.146 276.206 158.658C276.206 165.171 281.725 170.451 288.534 170.451Z" fill="#0078BF"/>
<path fill-rule="evenodd" clip-rule="evenodd" d="M359.287 168.092C364.734 168.092 369.149 163.868 369.149 158.658C369.149 153.448 364.734 149.225 359.287 149.225C353.84 149.225 349.424 153.448 349.424 158.658C349.424 163.868 353.84 168.092 359.287 168.092ZM359.287 170.451C366.096 170.451 371.615 165.171 371.615 158.658C371.615 152.146 366.096 146.866 359.287 146.866C352.478 146.866 346.959 152.146 346.959 158.658C346.959 165.171 352.478 170.451 359.287 170.451Z" fill="#0078BF"/>
<circle cx="323.374" cy="61.1049" r="19.2963" fill="#F15060"/>
<path d="M17.068 452.258C16.1907 450.97 14.912 450.326 13.232 450.326C12.7093 450.326 12.196 450.401 11.692 450.55C11.188 450.681 10.7307 450.895 10.32 451.194C9.928 451.474 9.61067 451.847 9.368 452.314C9.12533 452.762 9.004 453.294 9.004 453.91C9.004 454.806 9.256 455.506 9.76 456.01C10.264 456.495 10.8893 456.897 11.636 457.214C12.3827 457.531 13.1947 457.821 14.072 458.082C14.968 458.325 15.7893 458.661 16.536 459.09C17.2827 459.501 17.908 460.051 18.412 460.742C18.916 461.433 19.168 462.375 19.168 463.57C19.168 464.466 18.972 465.278 18.58 466.006C18.2067 466.715 17.7027 467.313 17.068 467.798C16.452 468.283 15.752 468.657 14.968 468.918C14.2027 469.179 13.428 469.31 12.644 469.31C11.4307 469.31 10.2733 469.086 9.172 468.638C8.08933 468.171 7.16533 467.415 6.4 466.37L8.22 465.054C8.64933 465.782 9.24667 466.37 10.012 466.818C10.7773 467.247 11.6827 467.462 12.728 467.462C13.232 467.462 13.736 467.387 14.24 467.238C14.744 467.07 15.192 466.837 15.584 466.538C15.9947 466.221 16.3307 465.838 16.592 465.39C16.8533 464.942 16.984 464.429 16.984 463.85C16.984 463.159 16.8347 462.59 16.536 462.142C16.256 461.675 15.8733 461.293 15.388 460.994C14.9213 460.677 14.38 460.415 13.764 460.21C13.1667 460.005 12.5413 459.799 11.888 459.594C11.2533 459.389 10.628 459.155 10.012 458.894C9.41467 458.633 8.87333 458.306 8.388 457.914C7.92133 457.503 7.53867 456.999 7.24 456.402C6.96 455.786 6.82 455.021 6.82 454.106C6.82 453.154 6.99733 452.323 7.352 451.614C7.72533 450.905 8.21067 450.317 8.808 449.85C9.424 449.383 10.1147 449.038 10.88 448.814C11.6453 448.59 12.4293 448.478 13.232 448.478C14.352 448.478 15.3693 448.655 16.284 449.01C17.1987 449.365 18.048 449.99 18.832 450.886L17.068 452.258ZM31.6466 461.246C31.6466 459.995 31.2733 458.987 30.5266 458.222C29.7799 457.438 28.7346 457.046 27.3906 457.046C26.7933 457.046 26.2146 457.167 25.6546 457.41C25.0946 457.634 24.5999 457.942 24.1706 458.334C23.7599 458.726 23.4239 459.174 23.1626 459.678C22.9199 460.182 22.7986 460.705 22.7986 461.246H31.6466ZM22.7426 462.758C22.7986 463.411 22.9573 464.027 23.2186 464.606C23.4799 465.185 23.8253 465.689 24.2546 466.118C24.6839 466.529 25.1786 466.855 25.7386 467.098C26.2986 467.341 26.9053 467.462 27.5586 467.462C28.5479 467.462 29.3973 467.238 30.1066 466.79C30.8346 466.323 31.3853 465.791 31.7586 465.194L33.1866 466.37C32.4026 467.359 31.5346 468.069 30.5826 468.498C29.6493 468.927 28.6413 469.142 27.5586 469.142C26.5879 469.142 25.6826 468.974 24.8426 468.638C24.0213 468.283 23.3119 467.798 22.7146 467.182C22.1173 466.566 21.6413 465.838 21.2866 464.998C20.9506 464.158 20.7826 463.243 20.7826 462.254C20.7826 461.265 20.9506 460.35 21.2866 459.51C21.6226 458.67 22.0893 457.942 22.6866 457.326C23.2839 456.71 23.9839 456.234 24.7866 455.898C25.5893 455.543 26.4573 455.366 27.3906 455.366C28.3799 455.366 29.2666 455.543 30.0506 455.898C30.8346 456.253 31.4879 456.729 32.0106 457.326C32.5519 457.905 32.9626 458.595 33.2426 459.398C33.5226 460.182 33.6626 461.022 33.6626 461.918V462.758H22.7426ZM36.0892 459.79C36.0892 459.211 36.0705 458.623 36.0332 458.026C36.0145 457.429 35.9959 456.654 35.9772 455.702H37.7972V458.138H37.8532C37.9839 457.783 38.1705 457.447 38.4132 457.13C38.6559 456.794 38.9452 456.495 39.2812 456.234C39.6359 455.973 40.0372 455.767 40.4852 455.618C40.9519 455.45 41.4745 455.366 42.0532 455.366C42.5759 455.366 43.0332 455.422 43.4252 455.534L43.0612 457.354C42.8185 457.261 42.4639 457.214 41.9972 457.214C41.2879 457.214 40.6812 457.354 40.1772 457.634C39.6732 457.895 39.2532 458.241 38.9172 458.67C38.5812 459.081 38.3292 459.529 38.1612 460.014C38.0119 460.499 37.9372 460.966 37.9372 461.414V468.806H36.0892V459.79ZM46.7581 450.662C46.7581 451.054 46.6181 451.381 46.3381 451.642C46.0581 451.885 45.7501 452.006 45.4141 452.006C45.0781 452.006 44.7701 451.885 44.4901 451.642C44.2101 451.381 44.0701 451.054 44.0701 450.662C44.0701 450.27 44.2101 449.953 44.4901 449.71C44.7701 449.449 45.0781 449.318 45.4141 449.318C45.7501 449.318 46.0581 449.449 46.3381 449.71C46.6181 449.953 46.7581 450.27 46.7581 450.662ZM46.3381 468.806H44.4901V455.702H46.3381V468.806ZM51.0206 462.086C51.0206 462.777 51.142 463.43 51.3846 464.046C51.646 464.643 51.9913 465.175 52.4206 465.642C52.8686 466.09 53.382 466.454 53.9606 466.734C54.558 466.995 55.202 467.126 55.8926 467.126C56.5646 467.126 57.1993 467.005 57.7966 466.762C58.4126 466.519 58.954 466.183 59.4206 465.754C59.8873 465.306 60.242 464.774 60.4846 464.158C60.746 463.542 60.8673 462.851 60.8486 462.086C60.8486 461.395 60.7366 460.751 60.5126 460.154C60.2886 459.538 59.962 459.006 59.5326 458.558C59.1033 458.091 58.5806 457.727 57.9646 457.466C57.3486 457.186 56.658 457.046 55.8926 457.046C55.202 457.046 54.558 457.186 53.9606 457.466C53.382 457.727 52.8686 458.091 52.4206 458.558C51.9913 459.006 51.646 459.538 51.3846 460.154C51.142 460.751 51.0206 461.395 51.0206 462.086ZM50.6846 471.438C51.226 472.166 51.926 472.745 52.7846 473.174C53.662 473.622 54.6326 473.846 55.6966 473.846C56.63 473.846 57.4233 473.706 58.0766 473.426C58.73 473.165 59.2526 472.801 59.6446 472.334C60.0553 471.867 60.3446 471.317 60.5126 470.682C60.6993 470.066 60.7926 469.403 60.7926 468.694V466.342H60.7366C60.1393 467.238 59.4113 467.873 58.5526 468.246C57.694 468.619 56.7886 468.806 55.8366 468.806C54.8846 468.806 53.9886 468.638 53.1486 468.302C52.3273 467.966 51.6086 467.509 50.9926 466.93C50.3766 466.333 49.8913 465.623 49.5366 464.802C49.182 463.981 49.0046 463.094 49.0046 462.142C49.0046 461.19 49.1726 460.303 49.5086 459.482C49.8446 458.661 50.302 457.942 50.8806 457.326C51.478 456.71 52.178 456.234 52.9806 455.898C53.802 455.543 54.698 455.366 55.6686 455.366C56.0606 455.366 56.4713 455.403 56.9006 455.478C57.3486 455.553 57.7873 455.683 58.2166 455.87C58.6646 456.057 59.1033 456.318 59.5326 456.654C59.962 456.971 60.3633 457.382 60.7366 457.886H60.7926V455.702H62.6406V468.694C62.6406 469.403 62.5473 470.159 62.3606 470.962C62.1926 471.765 61.8473 472.502 61.3246 473.174C60.8206 473.846 60.1113 474.406 59.1966 474.854C58.282 475.302 57.0873 475.526 55.6126 475.526C54.306 475.526 53.1393 475.311 52.1126 474.882C51.086 474.453 50.1526 473.79 49.3126 472.894L50.6846 471.438ZM65.8698 459.79C65.8698 459.211 65.8511 458.623 65.8138 458.026C65.7951 457.429 65.7765 456.654 65.7578 455.702H67.5778V458.138H67.6338C67.7645 457.783 67.9511 457.447 68.1938 457.13C68.4365 456.794 68.7258 456.495 69.0618 456.234C69.4165 455.973 69.8178 455.767 70.2658 455.618C70.7325 455.45 71.2551 455.366 71.8338 455.366C72.3565 455.366 72.8138 455.422 73.2058 455.534L72.8418 457.354C72.5991 457.261 72.2445 457.214 71.7778 457.214C71.0685 457.214 70.4618 457.354 69.9578 457.634C69.4538 457.895 69.0338 458.241 68.6978 458.67C68.3618 459.081 68.1098 459.529 67.9418 460.014C67.7925 460.499 67.7178 460.966 67.7178 461.414V468.806H65.8698V459.79ZM81.2987 462.282C80.832 462.282 80.244 462.31 79.5347 462.366C78.844 462.403 78.172 462.515 77.5187 462.702C76.884 462.87 76.3334 463.141 75.8667 463.514C75.4187 463.887 75.1947 464.401 75.1947 465.054C75.1947 465.483 75.2787 465.857 75.4467 466.174C75.6334 466.473 75.876 466.725 76.1747 466.93C76.4734 467.117 76.8 467.257 77.1547 467.35C77.528 467.425 77.9014 467.462 78.2747 467.462C78.9467 467.462 79.5254 467.35 80.0107 467.126C80.5147 466.902 80.9347 466.603 81.2707 466.23C81.6067 465.838 81.8494 465.39 81.9987 464.886C82.1667 464.363 82.2507 463.813 82.2507 463.234V462.282H81.2987ZM82.2507 460.77V460.434C82.2507 458.175 81.1307 457.046 78.8907 457.046C77.36 457.046 76.0254 457.559 74.8867 458.586L73.7667 457.27C74.9987 456.001 76.8467 455.366 79.3107 455.366C79.9454 455.366 80.552 455.459 81.1307 455.646C81.728 455.833 82.2414 456.122 82.6707 456.514C83.1 456.887 83.4454 457.363 83.7067 457.942C83.968 458.521 84.0987 459.211 84.0987 460.014V465.866C84.0987 466.37 84.1174 466.902 84.1547 467.462C84.2107 468.003 84.2667 468.451 84.3227 468.806H82.5307C82.4747 468.489 82.428 468.143 82.3907 467.77C82.372 467.397 82.3627 467.033 82.3627 466.678H82.3067C81.7654 467.555 81.1214 468.19 80.3747 468.582C79.6467 468.955 78.7507 469.142 77.6867 469.142C77.108 469.142 76.548 469.058 76.0067 468.89C75.4654 468.741 74.98 468.507 74.5507 468.19C74.14 467.854 73.804 467.453 73.5427 466.986C73.3 466.501 73.1787 465.941 73.1787 465.306C73.1787 464.242 73.4494 463.411 73.9907 462.814C74.5507 462.198 75.2414 461.741 76.0627 461.442C76.9027 461.143 77.7894 460.957 78.7227 460.882C79.6747 460.807 80.5427 460.77 81.3267 460.77H82.2507ZM93.3542 457.382H90.2462V468.806H88.3982V457.382H85.6262V455.702H88.3982V452.118C88.3982 450.382 88.7996 449.15 89.6022 448.422C90.4049 447.675 91.4689 447.302 92.7942 447.302C93.0556 447.302 93.3169 447.321 93.5782 447.358C93.8582 447.395 94.1289 447.442 94.3902 447.498L94.0542 449.178C93.8302 449.122 93.5969 449.075 93.3542 449.038C93.1116 449.001 92.8689 448.982 92.6262 448.982C92.1222 448.982 91.7116 449.066 91.3942 449.234C91.0769 449.402 90.8342 449.645 90.6662 449.962C90.4982 450.261 90.3862 450.615 90.3302 451.026C90.2742 451.437 90.2462 451.875 90.2462 452.342V455.702H93.3542V457.382ZM97.1034 450.662C97.1034 451.054 96.9634 451.381 96.6834 451.642C96.4034 451.885 96.0954 452.006 95.7594 452.006C95.4234 452.006 95.1154 451.885 94.8354 451.642C94.5554 451.381 94.4154 451.054 94.4154 450.662C94.4154 450.27 94.5554 449.953 94.8354 449.71C95.1154 449.449 95.4234 449.318 95.7594 449.318C96.0954 449.318 96.4034 449.449 96.6834 449.71C96.9634 449.953 97.1034 450.27 97.1034 450.662ZM96.6834 468.806H94.8354V455.702H96.6834V468.806ZM107.47 462.282C107.003 462.282 106.415 462.31 105.706 462.366C105.015 462.403 104.343 462.515 103.69 462.702C103.055 462.87 102.505 463.141 102.038 463.514C101.59 463.887 101.366 464.401 101.366 465.054C101.366 465.483 101.45 465.857 101.618 466.174C101.805 466.473 102.047 466.725 102.346 466.93C102.645 467.117 102.971 467.257 103.326 467.35C103.699 467.425 104.073 467.462 104.446 467.462C105.118 467.462 105.697 467.35 106.182 467.126C106.686 466.902 107.106 466.603 107.442 466.23C107.778 465.838 108.021 465.39 108.17 464.886C108.338 464.363 108.422 463.813 108.422 463.234V462.282H107.47ZM108.422 460.77V460.434C108.422 458.175 107.302 457.046 105.062 457.046C103.531 457.046 102.197 457.559 101.058 458.586L99.9379 457.27C101.17 456.001 103.018 455.366 105.482 455.366C106.117 455.366 106.723 455.459 107.302 455.646C107.899 455.833 108.413 456.122 108.842 456.514C109.271 456.887 109.617 457.363 109.878 457.942C110.139 458.521 110.27 459.211 110.27 460.014V465.866C110.27 466.37 110.289 466.902 110.326 467.462C110.382 468.003 110.438 468.451 110.494 468.806H108.702C108.646 468.489 108.599 468.143 108.562 467.77C108.543 467.397 108.534 467.033 108.534 466.678H108.478C107.937 467.555 107.293 468.19 106.546 468.582C105.818 468.955 104.922 469.142 103.858 469.142C103.279 469.142 102.719 469.058 102.178 468.89C101.637 468.741 101.151 468.507 100.722 468.19C100.311 467.854 99.9753 467.453 99.7139 466.986C99.4713 466.501 99.3499 465.941 99.3499 465.306C99.3499 464.242 99.6206 463.411 100.162 462.814C100.722 462.198 101.413 461.741 102.234 461.442C103.074 461.143 103.961 460.957 104.894 460.882C105.846 460.807 106.714 460.77 107.498 460.77H108.422Z" fill="black"/>
<path d="M24.7366 313.452C24.7366 308.482 28.766 304.452 33.7366 304.452H85.4175C90.3881 304.452 94.4176 308.482 94.4176 313.452V328.036H24.7366V313.452Z" fill="#0078BF"/>
<path d="M98.5 411.5L20.5 411.5L20.5 317.5L98.5 317.5L98.5 411.5Z" stroke="#0078BF" stroke-width="3"/>
<path fill-rule="evenodd" clip-rule="evenodd" d="M51.5811 367.635V363.042C51.6033 375.555 65.4333 376.213 65.4529 364.687L65.4529 392.076C65.4529 404.58 79.9853 403.593 79.9853 392.076V342.204H79.9854L79.9854 362.802C79.9854 375.225 94.5178 375.879 94.5178 364.437V342.204V329.653L23.8374 329.653L23.8374 342.204H23.8375L23.8375 354.754C23.8375 367.287 37.6696 366.317 37.7093 354.803L37.7093 367.635C37.7093 380.187 51.5811 379.196 51.5811 367.635Z" fill="#F15060"/>
<path d="M291.676 465.782H291.732L298.228 448.982H300.412L292.684 468.806H290.668L283.136 448.982H285.376L291.676 465.782ZM304.086 450.662C304.086 451.054 303.946 451.381 303.666 451.642C303.386 451.885 303.078 452.006 302.742 452.006C302.406 452.006 302.098 451.885 301.818 451.642C301.538 451.381 301.398 451.054 301.398 450.662C301.398 450.27 301.538 449.953 301.818 449.71C302.098 449.449 302.406 449.318 302.742 449.318C303.078 449.318 303.386 449.449 303.666 449.71C303.946 449.953 304.086 450.27 304.086 450.662ZM303.666 468.806H301.818V455.702H303.666V468.806ZM308.768 455.702C308.806 456.057 308.824 456.411 308.824 456.766C308.843 457.102 308.852 457.447 308.852 457.802H308.908C309.114 457.447 309.375 457.121 309.692 456.822C310.01 456.523 310.364 456.271 310.756 456.066C311.148 455.842 311.559 455.674 311.988 455.562C312.436 455.431 312.875 455.366 313.304 455.366C314.984 455.366 316.226 455.814 317.028 456.71C317.831 457.587 318.232 458.847 318.232 460.49V468.806H316.384V461.554C316.384 460.098 316.132 458.987 315.628 458.222C315.124 457.438 314.191 457.046 312.828 457.046C312.735 457.046 312.474 457.083 312.044 457.158C311.615 457.233 311.158 457.438 310.672 457.774C310.206 458.11 309.786 458.614 309.412 459.286C309.039 459.958 308.852 460.891 308.852 462.086V468.806H307.004V458.586C307.004 458.231 306.986 457.783 306.948 457.242C306.93 456.701 306.902 456.187 306.864 455.702H308.768ZM324.131 450.662C324.131 451.054 323.991 451.381 323.711 451.642C323.431 451.885 323.123 452.006 322.787 452.006C322.451 452.006 322.143 451.885 321.863 451.642C321.583 451.381 321.443 451.054 321.443 450.662C321.443 450.27 321.583 449.953 321.863 449.71C322.143 449.449 322.451 449.318 322.787 449.318C323.123 449.318 323.431 449.449 323.711 449.71C323.991 449.953 324.131 450.27 324.131 450.662ZM323.711 468.806H321.863V455.702H323.711V468.806ZM329.317 468.806H327.469V447.638H329.317V468.806ZM342.848 461.246C342.848 459.995 342.475 458.987 341.728 458.222C340.981 457.438 339.936 457.046 338.592 457.046C337.995 457.046 337.416 457.167 336.856 457.41C336.296 457.634 335.801 457.942 335.372 458.334C334.961 458.726 334.625 459.174 334.364 459.678C334.121 460.182 334 460.705 334 461.246H342.848ZM333.944 462.758C334 463.411 334.159 464.027 334.42 464.606C334.681 465.185 335.027 465.689 335.456 466.118C335.885 466.529 336.38 466.855 336.94 467.098C337.5 467.341 338.107 467.462 338.76 467.462C339.749 467.462 340.599 467.238 341.308 466.79C342.036 466.323 342.587 465.791 342.96 465.194L344.388 466.37C343.604 467.359 342.736 468.069 341.784 468.498C340.851 468.927 339.843 469.142 338.76 469.142C337.789 469.142 336.884 468.974 336.044 468.638C335.223 468.283 334.513 467.798 333.916 467.182C333.319 466.566 332.843 465.838 332.488 464.998C332.152 464.158 331.984 463.243 331.984 462.254C331.984 461.265 332.152 460.35 332.488 459.51C332.824 458.67 333.291 457.942 333.888 457.326C334.485 456.71 335.185 456.234 335.988 455.898C336.791 455.543 337.659 455.366 338.592 455.366C339.581 455.366 340.468 455.543 341.252 455.898C342.036 456.253 342.689 456.729 343.212 457.326C343.753 457.905 344.164 458.595 344.444 459.398C344.724 460.182 344.864 461.022 344.864 461.918V462.758H333.944Z" fill="black"/>
<rect x="242.936" y="328.907" width="57.1925" height="57.1925" transform="rotate(-20.8701 242.936 328.907)" fill="#0078BF" stroke="#0078BF" stroke-width="3"/>
<rect x="352.904" y="322.155" width="80.3082" height="36.4907" transform="rotate(84.7457 352.904 322.155)" stroke="#0078BF" stroke-width="3"/>
<path d="M311.666 274.99C312.266 274.261 313.384 274.261 313.984 274.99L320.877 283.373C321.717 284.394 322.963 284.994 324.285 285.014L335.137 285.177C336.082 285.192 336.778 286.065 336.582 286.989L334.326 297.605C334.051 298.898 334.359 300.247 335.168 301.293L341.806 309.879C342.384 310.626 342.136 311.715 341.291 312.138L331.584 316.993C330.402 317.585 329.539 318.666 329.226 319.951L326.652 330.494C326.428 331.412 325.422 331.897 324.564 331.5L314.716 326.938C313.517 326.382 312.133 326.382 310.934 326.938L301.086 331.5C300.228 331.897 299.222 331.412 298.998 330.494L296.424 319.951C296.111 318.666 295.248 317.585 294.066 316.993L284.359 312.138C283.514 311.715 283.266 310.626 283.844 309.879L290.482 301.293C291.291 300.247 291.599 298.898 291.324 297.605L289.068 286.989C288.872 286.065 289.568 285.192 290.513 285.177L301.365 285.014C302.687 284.994 303.933 284.394 304.773 283.373L311.666 274.99Z" fill="white" stroke="#F15060" stroke-width="3"/>
<path d="M318.773 372.546L317.78 371.421L318.773 372.546C319.136 372.225 319.696 372.566 319.578 373.036C318.86 375.909 321.819 378.317 324.487 377.029C324.923 376.818 325.37 377.297 325.13 377.718C323.664 380.291 325.863 383.408 328.779 382.888C329.256 382.802 329.558 383.384 329.213 383.725C327.106 385.807 328.384 389.401 331.332 389.687C331.814 389.734 331.948 390.375 331.524 390.61C328.934 392.047 329.194 395.853 331.956 396.923C332.408 397.098 332.363 397.752 331.891 397.864C329.01 398.548 328.233 402.283 330.604 404.059C330.992 404.35 330.772 404.967 330.288 404.948C327.329 404.829 325.574 408.216 327.377 410.566C327.672 410.95 327.294 411.485 326.833 411.336C324.015 410.424 321.412 413.211 322.514 415.96C322.695 416.41 322.187 416.824 321.783 416.556C319.316 414.917 316.056 416.899 316.377 419.843C316.429 420.325 315.828 420.586 315.512 420.219C313.578 417.975 309.905 419.004 309.419 421.926C309.339 422.404 308.69 422.493 308.485 422.054C307.228 419.372 303.413 419.372 302.157 422.054C301.951 422.493 301.302 422.404 301.223 421.926C300.737 419.004 297.063 417.975 295.13 420.219C294.814 420.586 294.213 420.325 294.265 419.843C294.585 416.899 291.326 414.917 288.859 416.556C288.455 416.824 287.947 416.41 288.127 415.96C289.23 413.211 286.626 410.424 283.808 411.336C283.347 411.485 282.969 410.95 283.265 410.566C285.068 408.216 283.313 404.829 280.354 404.948C279.869 404.967 279.65 404.35 280.038 404.059C282.408 402.283 281.632 398.548 278.75 397.864C278.279 397.752 278.234 397.098 278.686 396.923C281.448 395.853 281.708 392.047 279.118 390.61C278.694 390.375 278.827 389.734 279.31 389.687C282.258 389.401 283.535 385.807 281.429 383.725C281.084 383.384 281.385 382.802 281.862 382.888C284.778 383.408 286.978 380.291 285.511 377.718C285.271 377.297 285.719 376.818 286.155 377.029C288.822 378.317 291.782 375.909 291.063 373.036C290.946 372.566 291.506 372.225 291.869 372.546C294.09 374.505 297.589 372.986 297.673 370.025C297.687 369.54 298.317 369.364 298.581 369.771C300.191 372.257 303.97 371.737 304.849 368.909C304.993 368.446 305.648 368.446 305.792 368.909C306.672 371.737 310.451 372.257 312.061 369.771C312.324 369.364 312.955 369.54 312.969 370.025C313.053 372.986 316.552 374.505 318.773 372.546Z" fill="#F15060" stroke="#F15060" stroke-width="3"/>
</svg>
